<svg width="502" height="690" viewBox="0 0 502 690" fill="none" xmlns="http://www.w3.org/2000/svg">
<path d="M54.4343 110.298L3.81699 83.6075C2.98487 83.1696 2.24738 82.5718 1.64683 81.8483C1.04628 81.1247 0.594479 80.2898 0.317337 79.3912C0.0401951 78.4927 -0.0568325 77.5483 0.031823 76.6122C0.120479 75.6761 0.393066 74.7667 0.83396 73.9362L37.8235 3.81925C38.7144 2.14096 40.2334 0.883497 42.0485 0.321609C43.8636 -0.240279 45.8273 -0.0609113 47.5106 0.820519L79.6802 17.7767L91 56.509L64.1213 107.299C63.2304 108.977 61.7115 110.235 59.8964 110.797C58.0813 111.359 56.1176 111.179 54.4343 110.298Z" fill="#029491"/>
<g opacity="0.3">
<path d="M79.6803 17.7761L69.2554 37.4955C68.4342 39.0601 68.2656 40.8861 68.7862 42.5746C69.3069 44.2631 70.4746 45.677 72.0343 46.5074L91.0001 56.5084L79.6803 17.7761Z" fill="white"/>
</g>
<g opacity="0.2">
<path d="M68.5477 39.3643C67.7699 40.8641 67.5281 42.5847 67.8622 44.2409C68.1962 45.897 69.0862 47.3893 70.3846 48.4704L70.9341 48.9257C73.1792 50.6841 87.9374 62.1923 88.2043 61.8155C88.4712 61.4387 90.9989 56.5088 90.9989 56.5088L72.0331 46.5078C72.0331 46.5078 67.3231 43.8388 68.5477 39.3643Z" fill="black"/>
</g>
<path d="M65.3769 34.4503C65.2356 34.7015 59.8975 32.1424 53.4291 28.7198C46.9606 25.2971 41.8266 22.3455 41.9993 22.0786C42.1721 21.8117 47.4944 24.3865 53.9629 27.8091C60.4313 31.2318 65.5496 34.1991 65.3769 34.4503Z" fill="#FAFAFA"/>
<path d="M74.6097 53.6515C74.4841 53.9027 65.7391 49.5538 55.0944 43.9331C44.4497 38.3125 35.9402 33.4925 36.0658 33.2413C36.1914 32.9901 44.9364 37.3391 55.5811 42.9597C66.2258 48.5804 74.751 53.3375 74.6097 53.6515Z" fill="#FAFAFA"/>
<path d="M73.1646 64.7361C73.039 64.9873 63.5247 60.2301 51.9223 54.0914C40.3199 47.9526 31.0097 42.8029 31.151 42.5517C31.2923 42.3005 40.8066 47.0577 52.409 53.1808C64.0114 59.3038 73.3059 64.4849 73.1646 64.7361Z" fill="#FAFAFA"/>
<path d="M68.5348 73.5122C68.3935 73.7634 58.8792 69.0062 47.2767 62.8832C35.6743 56.7601 26.3798 51.5791 26.5211 51.3279C26.6624 51.0767 36.161 55.8338 47.7634 61.9569C59.3659 68.0799 68.6918 73.261 68.5348 73.5122Z" fill="#FAFAFA"/>
<path d="M63.886 82.3042C63.7604 82.5554 54.2461 77.7982 42.6437 71.6594C31.0413 65.5207 21.7468 60.371 21.8724 60.1198C21.998 59.8686 31.528 64.6415 43.1304 70.7488C54.7328 76.8562 63.9802 82.053 63.886 82.3042Z" fill="#FAFAFA"/>
<path d="M59.2711 91.0803C59.1298 91.3315 49.6155 86.5744 38.0288 80.4513C26.442 74.3282 17.1161 69.1472 17.2574 68.896C17.3987 68.6448 26.8973 73.4019 38.4998 79.525C50.1022 85.6481 59.3967 90.8291 59.2711 91.0803Z" fill="#FAFAFA"/>
<path d="M260.84 78.2402C259.666 78.0718 258.607 77.4443 257.895 76.4954C257.183 75.5465 256.878 74.3539 257.045 73.1796L262.579 34.6746C262.753 33.7065 263.303 32.8469 264.11 32.284C264.916 31.721 265.913 31.5006 266.882 31.6709L270.496 32.1959C271.203 32.305 271.926 32.2164 272.585 31.9399C273.244 31.6635 273.814 31.2099 274.232 30.6295L275.239 29.1579C275.656 28.5775 276.226 28.124 276.885 27.8475C277.544 27.571 278.267 27.4824 278.974 27.5915L296.187 30.0616C296.834 30.1477 297.449 30.3955 297.976 30.782C298.502 31.1686 298.923 31.6815 299.199 32.2734L299.853 33.7365C300.128 34.3273 300.548 34.8394 301.072 35.2259C301.597 35.6124 302.211 35.8608 302.857 35.9483L324.76 39.0983C325.736 39.2065 326.63 39.6977 327.245 40.4641C327.86 41.2305 328.145 42.2096 328.039 43.1863L322.376 82.5606C322.293 83.1417 322.096 83.7007 321.796 84.2055C321.497 84.7104 321.101 85.1513 320.631 85.503C320.161 85.8547 319.626 86.1103 319.057 86.2552C318.488 86.4001 317.896 86.4314 317.315 86.3475L260.84 78.2402Z" fill="#455A64"/>
<g opacity="0.3">
<path d="M260.84 78.2402C259.666 78.0718 258.607 77.4443 257.895 76.4954C257.183 75.5465 256.878 74.3539 257.045 73.1796L262.579 34.6746C262.753 33.7065 263.303 32.8469 264.11 32.284C264.916 31.721 265.913 31.5006 266.882 31.6709L270.496 32.1959C271.203 32.305 271.926 32.2164 272.585 31.9399C273.244 31.6635 273.814 31.2099 274.232 30.6295L275.239 29.1579C275.656 28.5775 276.226 28.124 276.885 27.8475C277.544 27.571 278.267 27.4824 278.974 27.5915L296.187 30.0616C296.834 30.1477 297.449 30.3955 297.976 30.782C298.502 31.1686 298.923 31.6815 299.199 32.2734L299.853 33.7365C300.128 34.3273 300.548 34.8394 301.072 35.2259C301.597 35.6124 302.211 35.8608 302.857 35.9483L324.76 39.0983C325.736 39.2065 326.63 39.6977 327.245 40.4641C327.86 41.2305 328.145 42.2096 328.039 43.1863L322.376 82.5606C322.293 83.1417 322.096 83.7007 321.796 84.2055C321.497 84.7104 321.101 85.1513 320.631 85.503C320.161 85.8547 319.626 86.1103 319.057 86.2552C318.488 86.4001 317.896 86.4314 317.315 86.3475L260.84 78.2402Z" fill="black"/>
</g>
<path d="M300.662 35.6472L286.736 33.6075L285.824 31.103C285.511 30.2852 284.982 29.5672 284.294 29.0248C283.607 28.4825 282.785 28.136 281.917 28.0219L268.301 26.0683C267.185 25.8696 266.035 26.1198 265.102 26.7645C264.169 27.4091 263.528 28.3961 263.318 29.5108L263.095 31.103L257.07 72.9044C256.932 74.1883 257.307 75.4749 258.113 76.4839C258.919 77.4929 260.091 78.1427 261.373 78.292L316.721 86.3131C317.994 86.5361 319.304 86.2456 320.364 85.5053C321.423 84.765 322.147 83.6351 322.375 82.3628L328.056 42.8766C328.118 42.4576 328.096 42.0306 327.993 41.6199C327.889 41.2093 327.705 40.8233 327.451 40.4841C327.198 40.1449 326.879 39.8593 326.515 39.6436C326.15 39.4279 325.747 39.2865 325.327 39.2275L300.662 35.6472Z" fill="#455A64"/>
<path d="M311.846 52.8257L278.921 48.0928L276.93 61.9444L309.855 66.6773L311.846 52.8257Z" fill="white"/>
<path d="M305.878 58.2132C305.878 58.3337 300.782 57.7054 294.534 56.8104C288.286 55.9153 283.234 55.0891 283.26 54.96C283.286 54.8309 288.355 55.4678 294.603 56.3628C300.851 57.2579 305.895 58.0927 305.878 58.2132Z" fill="#263238"/>
<path d="M305.456 61.1651C305.456 61.2856 300.361 60.6573 294.113 59.7623C287.865 58.8672 282.813 58.041 282.83 57.9119C282.847 57.7828 287.925 58.4197 294.173 59.3147C300.422 60.2098 305.474 61.0446 305.456 61.1651Z" fill="#263238"/>
<path d="M360.753 61.1309C360.391 61.2676 360.005 61.3315 359.618 61.3189C359.231 61.3063 358.851 61.2176 358.498 61.0577C358.146 60.8978 357.828 60.6699 357.564 60.3871C357.299 60.1043 357.093 59.7722 356.958 59.4097L347.835 35.5699C347.73 35.2682 347.686 34.9488 347.706 34.6301C347.725 34.3113 347.807 33.9995 347.947 33.7125C348.086 33.4255 348.282 33.1689 348.521 32.9574C348.76 32.746 349.039 32.5838 349.341 32.4802L351.578 31.6196C352.016 31.453 352.401 31.1703 352.69 30.8019C352.98 30.4335 353.164 29.9932 353.222 29.5282L353.326 28.3664C353.378 27.8995 353.56 27.4566 353.851 27.0872C354.141 26.7178 354.528 26.4366 354.969 26.275L365.607 22.1956C366.007 22.041 366.439 21.9883 366.864 22.0424C367.289 22.0965 367.694 22.2556 368.043 22.5054L368.903 23.1336C369.251 23.382 369.654 23.5402 370.078 23.5943C370.501 23.6484 370.932 23.5966 371.33 23.4435L384.894 18.2796C385.49 18.0304 386.16 18.0271 386.759 18.2707C387.357 18.5142 387.834 18.9846 388.087 19.5792L397.416 43.9612C397.554 44.3233 397.619 44.7091 397.607 45.0963C397.595 45.4836 397.506 45.8646 397.346 46.2174C397.186 46.5703 396.958 46.888 396.675 47.1521C396.391 47.4163 396.058 47.6217 395.695 47.7566L360.753 61.1309Z" fill="#029491"/>
<g opacity="0.3">
<path d="M360.752 61.1307C360.39 61.2674 360.004 61.3312 359.617 61.3187C359.23 61.3061 358.85 61.2173 358.497 61.0574C358.145 60.8976 357.827 60.6697 357.563 60.3869C357.298 60.1041 357.092 59.7719 356.957 59.4094L347.834 35.5697C347.729 35.2679 347.685 34.9486 347.705 34.6298C347.724 34.3111 347.806 33.9993 347.946 33.7123C348.086 33.4252 348.281 33.1686 348.52 32.9572C348.759 32.7457 349.038 32.5836 349.34 32.48L351.578 31.6193C352.016 31.4527 352.4 31.1701 352.689 30.8016C352.979 30.4332 353.163 29.9929 353.221 29.528L353.325 28.3661C353.377 27.8993 353.559 27.4563 353.85 27.087C354.14 26.7176 354.527 26.4364 354.968 26.2747L365.606 22.1953C366.006 22.0407 366.438 21.9881 366.863 22.0422C367.288 22.0963 367.693 22.2554 368.042 22.5051L368.902 23.1334C369.25 23.3817 369.653 23.54 370.077 23.5941C370.5 23.6481 370.931 23.5963 371.329 23.4432L384.893 18.2794C385.489 18.0301 386.159 18.0269 386.758 18.2704C387.356 18.5139 387.833 18.9844 388.086 19.579L397.415 43.9609C397.553 44.323 397.618 44.7088 397.606 45.0961C397.594 45.4833 397.505 45.8643 397.345 46.2172C397.185 46.57 396.957 46.8877 396.674 47.1519C396.39 47.4161 396.057 47.6215 395.694 47.7564L360.752 61.1307Z" fill="black"/>
</g>
<path d="M369.979 23.9768L361.372 27.2645L360.047 26.1198C359.608 25.7492 359.077 25.5053 358.509 25.4143C357.942 25.3233 357.361 25.3887 356.828 25.6034L348.394 28.8308C347.691 29.0804 347.116 29.5979 346.793 30.2703C346.471 30.9427 346.427 31.7155 346.673 32.4197L347.051 33.4008L356.957 59.2889C357.29 60.071 357.917 60.6904 358.704 61.0126C359.49 61.3349 360.372 61.334 361.157 61.0102L395.419 47.894C396.224 47.6164 396.885 47.0308 397.258 46.2658C397.631 45.5009 397.685 44.6192 397.408 43.8146L388.044 19.3552C387.842 18.8314 387.44 18.4093 386.927 18.1817C386.413 17.9542 385.831 17.9398 385.307 18.1417L369.979 23.9768Z" fill="#029491"/>
<path d="M381.878 30.2353L361.487 38.0422L364.771 46.6182L385.162 38.8112L381.878 30.2353Z" fill="white"/>
<path d="M380.176 35.2515C377.928 36.3555 375.614 37.3212 373.248 38.1432C370.94 39.11 368.574 39.9349 366.165 40.6132C368.403 39.5193 370.702 38.5539 373.05 37.7215C375.375 36.7577 377.754 35.9329 380.176 35.2515Z" fill="#263238"/>
<path d="M380.875 37.0845C378.637 38.1769 376.338 39.1395 373.99 39.9676C371.657 40.9275 369.269 41.7466 366.838 42.4205C369.086 41.3164 371.4 40.3507 373.766 39.5287C376.084 38.5712 378.458 37.7549 380.875 37.0845Z" fill="#263238"/>
<path d="M458.556 337.723H158.824V562.945H458.556V337.723Z" fill="white"/>
<path d="M458.556 562.945C458.556 562.945 458.556 562.584 458.556 561.891C458.556 561.199 458.556 560.165 458.556 558.811C458.556 556.101 458.556 552.087 458.506 546.839C458.506 536.363 458.446 520.969 458.395 501.321C458.345 462.085 458.265 405.829 458.175 337.753L458.606 338.184L158.905 338.274L159.427 337.753C159.427 418.734 159.427 495.41 159.427 562.975L158.955 562.503L375.287 562.734L436.73 562.865L453.037 562.925H457.241H458.315H457.261H453.117L436.901 562.985L375.568 563.116L158.925 563.346H158.353V562.875C158.353 495.31 158.353 418.634 158.303 337.652V337.13H158.855L458.556 337.231H458.997V337.652C458.907 405.889 458.837 462.225 458.777 501.522C458.727 521.13 458.696 536.483 458.666 546.939C458.666 552.147 458.666 556.141 458.666 558.831C458.666 560.165 458.666 561.179 458.666 561.841C458.666 562.503 458.556 562.945 458.556 562.945Z" fill="#263238"/>
<path d="M457.051 365.308C456.801 365.341 456.55 365.357 456.298 365.359H454.07L445.521 365.449C438.105 365.509 427.358 365.539 414.091 365.529C387.539 365.529 350.872 365.339 310.371 365.007L206.651 364.174L175.211 363.924L166.672 363.823L164.444 363.763C164.194 363.792 163.941 363.792 163.691 363.763C163.94 363.718 164.192 363.701 164.444 363.713H166.672L175.211 363.623C182.637 363.562 193.375 363.532 206.651 363.532C233.193 363.532 269.87 363.733 310.381 364.064L414.091 364.897L445.531 365.138L454.07 365.248H456.298C456.55 365.242 456.803 365.262 457.051 365.308Z" fill="#263238"/>
<path d="M178.402 349.122C178.404 349.821 178.199 350.506 177.811 351.088C177.424 351.67 176.872 352.125 176.227 352.393C175.581 352.662 174.87 352.733 174.184 352.597C173.497 352.461 172.867 352.124 172.372 351.63C171.878 351.135 171.541 350.505 171.405 349.819C171.269 349.132 171.34 348.421 171.609 347.776C171.877 347.13 172.332 346.578 172.914 346.191C173.496 345.803 174.181 345.598 174.88 345.6C175.814 345.602 176.708 345.974 177.368 346.634C178.028 347.294 178.4 348.189 178.402 349.122Z" fill="#263238"/>
<path d="M192.522 349.122C192.524 349.821 192.318 350.505 191.931 351.087C191.544 351.669 190.993 352.123 190.348 352.392C189.703 352.661 188.992 352.733 188.306 352.597C187.62 352.462 186.99 352.127 186.495 351.633C186 351.14 185.663 350.51 185.526 349.825C185.389 349.139 185.458 348.428 185.725 347.782C185.992 347.136 186.445 346.584 187.026 346.196C187.607 345.807 188.29 345.6 188.989 345.6C189.924 345.6 190.821 345.97 191.483 346.631C192.146 347.291 192.519 348.187 192.522 349.122Z" fill="#263238"/>
<path d="M203.108 352.694C205.059 352.694 206.641 351.113 206.641 349.162C206.641 347.211 205.059 345.63 203.108 345.63C201.158 345.63 199.576 347.211 199.576 349.162C199.576 351.113 201.158 352.694 203.108 352.694Z" fill="#263238"/>
<path d="M272.659 496.042H211.065V542.153H272.659V496.042Z" fill="#EBEBEB"/>
<path d="M340.306 496.042H278.712V542.153H340.306V496.042Z" fill="#EBEBEB"/>
<path d="M419.138 496.042H357.544V542.153H419.138V496.042Z" fill="#EBEBEB"/>
<path d="M319.115 475.167C290.123 455.899 293.502 415.723 300.994 398.566L323.597 394.627C315.97 404.028 315.166 438.115 324.784 445.473C334.401 452.832 352.289 452.741 359.365 442.91C364.928 435.193 365.704 417.316 375.102 415.878C371.164 395.921 385.301 374.131 405.128 369.604C406.204 363.974 408.541 358.661 411.963 354.063C415.385 349.465 419.804 345.701 424.888 343.054C429.972 340.407 435.589 338.945 441.318 338.778C447.047 338.611 452.74 339.744 457.969 342.09L457.535 406.774C457.535 406.774 463.696 437.466 444.541 444.626C437.998 447.071 431.511 445.646 425.993 443.012C425.571 443.993 424.966 444.886 424.21 445.641C421.238 448.549 416.597 449.308 412.51 448.436C411.983 448.323 411.493 448.186 410.956 448.009C406.65 461.243 394.304 475.469 382.876 481.418C366.344 490.077 334.711 485.525 319.115 475.167Z" fill="#F5F5F5"/>
<path d="M378.92 422.719C378.92 422.719 378.892 422.609 378.794 422.4L378.365 421.507C378.168 421.111 377.931 420.622 377.698 420.03C377.464 419.438 377.151 418.764 376.904 417.978C375.338 413.552 374.652 408.862 374.885 404.172C375.029 400.957 375.621 397.778 376.644 394.726C377.801 391.201 379.55 387.899 381.817 384.962C387.044 378.183 394.527 373.503 402.909 371.768C404.11 371.509 405.329 371.377 406.459 371.239L406.68 371.219L406.691 371.004C407.076 366.071 408.496 361.274 410.858 356.927C413.22 352.579 416.471 348.778 420.4 345.77C421.769 344.768 423.195 343.847 424.671 343.011C427.311 341.487 430.13 340.297 433.063 339.466C437.295 338.232 441.749 337.96 446.1 338.671C446.875 338.778 447.539 338.936 448.124 339.071C448.617 339.175 449.105 339.303 449.586 339.456L450.486 339.707C450.586 339.745 450.69 339.768 450.797 339.773C450.797 339.773 450.702 339.717 450.503 339.659L449.62 339.359C449.143 339.185 448.656 339.041 448.16 338.93C447.578 338.773 446.91 338.601 446.111 338.455C441.723 337.664 437.213 337.882 432.922 339.091C429.952 339.905 427.097 341.091 424.424 342.62C422.923 343.453 421.476 344.378 420.089 345.389C418.628 346.487 417.255 347.7 415.984 349.014C410.242 354.946 406.747 362.692 406.098 370.922L406.335 370.678C401.436 371.162 396.69 372.651 392.392 375.052C388.095 377.453 384.339 380.715 381.358 384.633C379.069 387.613 377.307 390.964 376.149 394.539C375.126 397.644 374.546 400.878 374.423 404.145C374.216 408.874 374.962 413.596 376.617 418.03C376.862 418.727 377.144 419.41 377.461 420.077C377.669 420.579 377.905 421.068 378.169 421.543C378.373 421.908 378.529 422.197 378.644 422.417C378.727 422.525 378.82 422.626 378.92 422.719Z" fill="#263238"/>
<path d="M367.174 428.34C367.273 428.328 367.182 427.436 367.431 426.045C367.582 425.237 367.82 424.448 368.142 423.692C368.547 422.77 369.061 421.899 369.671 421.099C370.309 420.316 371.037 419.611 371.841 418.999C372.502 418.509 373.216 418.094 373.968 417.761C375.267 417.198 376.152 417.08 376.136 416.989C376.12 416.897 375.909 416.959 375.501 416.999C374.929 417.072 374.368 417.215 373.83 417.423C373.022 417.715 372.258 418.115 371.557 418.611C369.822 419.835 368.477 421.534 367.683 423.503C367.362 424.302 367.15 425.141 367.052 425.996C366.972 426.569 366.967 427.149 367.036 427.723C367.098 428.132 367.146 428.347 367.174 428.34Z" fill="#263238"/>
<path d="M377.383 452.657C377.383 452.657 377.431 452.022 377.648 450.903C377.957 449.312 378.58 447.798 379.48 446.451C380.82 444.416 382.779 442.867 385.067 442.032C387.919 440.999 391.059 441.095 393.843 442.301L394.231 442.472L394.206 442.061C394.156 440.69 394.261 439.318 394.52 437.971C395.186 434.503 396.815 431.294 399.222 428.71C401.22 426.628 403.675 425.041 406.393 424.073C408.227 423.419 410.149 423.044 412.093 422.96C413.473 422.911 414.242 422.991 414.236 422.941C414.057 422.886 413.872 422.855 413.685 422.849C413.154 422.784 412.62 422.753 412.085 422.757C409.621 422.769 407.184 423.273 404.916 424.239C402.649 425.204 400.597 426.612 398.88 428.38C397.143 430.201 395.788 432.352 394.897 434.706C394.006 437.06 393.596 439.569 393.691 442.084L394.059 441.835C391.149 440.567 387.861 440.479 384.886 441.588C382.522 442.479 380.514 444.117 379.166 446.253C378.271 447.649 377.68 449.218 377.431 450.857C377.365 451.297 377.332 451.741 377.334 452.186C377.328 452.345 377.344 452.503 377.383 452.657Z" fill="#263238"/>
<path d="M304.466 460.022C304.579 460.269 304.711 460.507 304.862 460.733C305.146 461.18 305.549 461.86 306.117 462.695C307.756 465.035 309.608 467.218 311.649 469.218C314.686 472.161 318.055 474.742 321.689 476.907C323.834 478.192 326.052 479.352 328.331 480.38C330.774 481.496 333.278 482.474 335.83 483.309C344.791 486.287 354.196 487.71 363.637 487.516C366.493 487.46 369.339 487.15 372.14 486.587C373.123 486.363 373.887 486.173 374.393 486.005C374.656 485.938 374.913 485.848 375.159 485.734C374.889 485.771 374.622 485.828 374.36 485.904C373.846 486.044 373.085 486.189 372.095 486.386C369.299 486.87 366.468 487.125 363.631 487.151C354.249 487.236 344.918 485.773 336.012 482.822C333.478 481.996 330.991 481.028 328.565 479.923C326.296 478.913 324.087 477.77 321.951 476.502C318.324 474.37 314.949 471.837 311.888 468.951C309.857 466.992 307.992 464.868 306.312 462.601C305.716 461.795 305.302 461.132 305.006 460.666C304.844 460.437 304.663 460.221 304.466 460.022Z" fill="#263238"/>
<path d="M319.711 436.787C319.781 437.241 319.912 437.683 320.102 438.101C320.511 439.252 321.026 440.363 321.64 441.419C323.655 444.952 326.611 447.856 330.179 449.807C333.747 451.758 337.787 452.68 341.849 452.469C343.065 452.416 344.273 452.251 345.459 451.976C345.903 451.894 346.335 451.758 346.747 451.571C345.122 451.836 343.483 452.01 341.839 452.091C337.861 452.198 333.926 451.249 330.435 449.34C326.944 447.432 324.021 444.632 321.964 441.226C321.119 439.796 320.366 438.314 319.711 436.787Z" fill="#263238"/>
<path d="M315.198 391.424C317.277 395.635 318.5 400.216 318.797 404.903C318.834 405.57 318.661 406.231 318.301 406.794C317.942 407.356 317.414 407.792 316.794 408.038C316.173 408.284 315.491 408.329 314.843 408.166C314.196 408.003 313.616 407.64 313.186 407.129L313.117 407.088C313.813 412.788 314.13 418.528 314.067 424.27C314.065 425.078 313.813 425.865 313.347 426.524C312.88 427.183 312.221 427.681 311.46 427.951C310.699 428.221 309.873 428.248 309.095 428.03C308.318 427.812 307.627 427.358 307.117 426.732C297.891 415.504 293.05 401.31 293.494 386.785L315.198 391.424Z" fill="#029491"/>
<g opacity="0.3">
<path d="M312.678 396.648C313.073 397.346 313.324 398.116 313.417 398.912C313.459 399.31 313.385 399.711 313.204 400.067C313.023 400.424 312.742 400.72 312.396 400.92C311.308 401.443 309.924 400.569 308.853 401.161C307.782 401.753 307.858 403.382 308.142 404.621L309.058 408.539C309.284 409.5 309.426 410.701 308.608 411.279C307.79 411.857 306.49 411.277 305.685 410.546C303.82 408.824 302.4 406.676 301.547 404.284C300.695 401.893 300.435 399.33 300.791 396.816L312.678 396.648Z" fill="black"/>
</g>
<path d="M313.651 442.068C314.425 442.563 314.974 443.341 315.179 444.235C315.385 445.13 315.231 446.07 314.751 446.852C314.271 447.634 313.502 448.197 312.611 448.418C311.721 448.64 310.778 448.503 309.988 448.037C309.197 447.571 308.621 446.813 308.383 445.926C308.146 445.039 308.266 444.095 308.718 443.296C309.17 442.497 309.917 441.907 310.8 441.654C311.682 441.4 312.628 441.504 313.435 441.941" fill="#029491"/>
<path d="M303.036 221.64C308.268 221.439 318.385 234.59 328.158 256.822C333.937 269.929 337.584 283.876 338.96 298.135L342.63 395.28L317.039 396.247L302.191 396.814L276.6 397.78L273.272 309.619C272.94 300.995 273.436 292.359 274.753 283.829C276.033 275.28 278 266.849 280.634 258.617C288.165 235.624 297.809 221.832 303.036 221.64Z" fill="#F5F5F5"/>
<path d="M274.321 336.868L274.082 337.076C267.153 343.084 261.662 350.573 258.016 358.989C254.369 367.405 252.661 376.532 253.016 385.697L253.458 397.338L275.965 380.4L274.321 336.868Z" fill="#029491"/>
<path d="M274.321 336.867L274.328 337.093L274.343 337.719L274.439 340.105L274.702 349.125L275.794 380.392L275.865 380.271L255.387 395.725L253.355 397.196L253.614 397.348L253.346 390.492C253.277 388.238 253.143 386.016 253.153 383.844C253.121 379.664 253.511 375.492 254.32 371.392C255.043 367.685 256.121 364.057 257.538 360.557C258.157 358.895 258.936 357.374 259.62 355.878C260.304 354.383 261.095 353.02 261.911 351.754C264.343 347.691 267.242 343.927 270.55 340.538C271.688 339.299 272.69 338.469 273.305 337.841L274.282 336.914L274.015 337.13L273.278 337.708C272.634 338.307 271.614 339.127 270.459 340.357C267.097 343.728 264.155 347.492 261.695 351.568C260.87 352.829 260.125 354.231 259.376 355.7C258.627 357.168 257.899 358.72 257.266 360.385C255.83 363.901 254.735 367.546 253.995 371.27C253.176 375.392 252.776 379.586 252.802 383.788C252.789 385.982 252.92 388.191 252.998 390.45L253.274 397.334L253.287 397.668L253.557 397.466L255.588 395.996L276.098 380.548L276.139 380.479L276.174 380.419L274.885 349.012L274.506 340.052L274.41 337.665C274.396 337.412 274.396 337.214 274.379 337.065L274.321 336.867Z" fill="#263238"/>
<path d="M340.355 334.381C340.355 334.381 340.485 334.458 340.623 334.539C347.883 339.934 353.838 346.891 358.049 354.895C362.26 362.9 364.62 371.748 364.954 380.787L365.392 392.274L341.982 377.31L340.355 334.381Z" fill="#029491"/>
<path d="M340.355 334.381L340.351 334.565L340.373 335.161L340.426 337.522L340.723 346.364L341.799 377.342L341.807 377.428L341.867 377.464C348.436 381.674 355.639 386.292 363.19 391.128C363.916 391.556 364.612 392.036 365.262 392.454L365.547 392.622L365.535 392.289L365.282 385.524C365.184 383.299 365.146 381.11 364.971 378.957C364.687 374.819 363.98 370.722 362.861 366.728C361.861 363.125 360.513 359.627 358.837 356.284C358.102 354.685 357.207 353.238 356.415 351.816C355.623 350.394 354.735 349.113 353.812 347.952C351.106 344.128 347.952 340.642 344.417 337.568C343.185 336.457 342.129 335.718 341.447 335.177C341.109 334.919 340.853 334.722 340.644 334.563C340.434 334.405 340.358 334.395 340.358 334.395C340.523 334.492 340.793 334.744 341.38 335.23C341.967 335.716 343.098 336.546 344.311 337.669C347.82 340.764 350.956 344.258 353.655 348.08C354.548 349.271 355.333 350.608 356.24 351.934C357.147 353.261 357.896 354.797 358.628 356.382C360.282 359.718 361.612 363.205 362.6 366.796C363.701 370.77 364.397 374.845 364.679 378.959C364.842 381.094 364.874 383.291 364.972 385.516L365.225 392.281L365.492 392.124C364.826 391.731 364.126 391.26 363.429 390.803C355.872 385.975 348.656 381.361 342.082 377.159L342.158 377.286L340.906 346.448L340.526 337.569L340.43 335.183L340.396 334.569L340.355 334.381Z" fill="#263238"/>
<path d="M303.035 221.641C307.074 221.331 314.058 229.304 321.521 243.162L284.784 247.051C291.151 232.435 297.858 222.026 303.035 221.641Z" fill="#029491"/>
<path d="M276.692 381.934C276.703 382.034 291.34 381.646 309.388 381.067C327.435 380.488 342.078 379.952 342.067 379.852C342.056 379.753 327.477 380.14 309.38 380.724C291.283 381.309 276.689 381.839 276.692 381.934Z" fill="#263238"/>
<path d="M277.105 384.869C277.064 384.938 291.745 384.576 309.792 383.997C327.839 383.418 342.483 382.882 342.472 382.782C342.461 382.683 327.84 383.08 309.784 383.655C291.729 384.229 277.094 384.769 277.105 384.869Z" fill="#263238"/>
<path d="M277.159 387.976C277.171 388.076 291.808 387.688 309.856 387.109C327.903 386.53 342.546 385.994 342.535 385.894C342.524 385.795 327.904 386.192 309.848 386.767C291.792 387.341 277.157 387.881 277.159 387.976Z" fill="#263238"/>
<path d="M277.224 391.09C277.235 391.189 291.878 390.793 309.92 390.223C327.962 389.652 342.623 389.068 342.579 389.043C342.536 389.017 327.948 389.341 309.892 389.915C291.836 390.489 277.227 390.986 277.224 391.09Z" fill="#263238"/>
<path d="M277.267 394.179C277.226 394.249 291.907 393.887 309.963 393.312C328.019 392.738 342.645 392.192 342.642 392.098C342.64 392.003 328.011 392.396 309.955 392.97C291.899 393.544 277.308 394.11 277.267 394.179Z" fill="#263238"/>
<path d="M307.219 335.7C307.219 335.7 307.142 335.83 307.16 336.155C307.178 336.48 307.14 336.9 307.128 337.475C307.119 338.635 307.163 340.28 307.229 342.322C307.347 346.411 307.582 352.059 307.88 358.292C308.178 364.525 308.476 370.164 308.711 374.251L309.016 379.09L309.119 380.397C309.116 380.551 309.136 380.703 309.177 380.851C309.191 380.697 309.193 380.542 309.182 380.388L309.152 379.077L308.956 374.232L308.203 358.296L307.453 342.338L307.226 337.545C307.211 336.977 307.175 336.525 307.187 336.229L307.219 335.7Z" fill="#263238"/>
<path d="M274.322 336.867C274.333 336.967 288.994 336.5 307.062 335.828C325.129 335.156 339.796 334.541 339.793 334.446C339.791 334.351 325.13 334.818 307.054 335.485C288.978 336.153 274.32 336.773 274.322 336.867Z" fill="#263238"/>
<path d="M303.129 367.931C303.016 367.808 302.868 367.721 302.705 367.681C302.274 367.507 301.795 367.488 301.351 367.628C301.011 367.721 300.701 367.902 300.453 368.153C300.205 368.403 300.028 368.715 299.938 369.056C299.807 369.481 299.813 369.937 299.954 370.359C300.096 370.781 300.366 371.148 300.727 371.408C301.088 371.668 301.521 371.809 301.966 371.81C302.411 371.811 302.846 371.673 303.208 371.414C303.504 371.222 303.745 370.956 303.906 370.642C304.066 370.327 304.141 369.976 304.123 369.624C304.121 369.171 303.971 368.731 303.697 368.371C303.489 368.131 303.314 368.052 303.304 368.069C303.294 368.087 303.425 368.199 303.587 368.458C303.817 368.811 303.935 369.225 303.924 369.646C303.92 369.951 303.837 370.249 303.682 370.511C303.527 370.773 303.307 370.991 303.042 371.142C302.732 371.346 302.368 371.451 301.997 371.443C301.626 371.434 301.266 371.314 300.966 371.096C300.665 370.878 300.438 370.574 300.315 370.225C300.191 369.875 300.177 369.495 300.275 369.137C300.343 368.843 300.486 368.571 300.691 368.349C300.895 368.126 301.154 367.961 301.442 367.869C301.829 367.723 302.25 367.696 302.653 367.79C302.967 367.87 303.114 367.957 303.129 367.931Z" fill="#263238"/>
<path d="M302.072 349.172C302.072 349.172 301.961 349.025 301.649 348.922C301.217 348.748 300.738 348.729 300.294 348.869C299.954 348.962 299.644 349.143 299.396 349.394C299.148 349.644 298.971 349.956 298.882 350.297C298.75 350.722 298.756 351.178 298.897 351.6C299.039 352.022 299.309 352.389 299.67 352.649C300.031 352.909 300.464 353.05 300.909 353.051C301.355 353.052 301.789 352.914 302.151 352.655C302.447 352.463 302.688 352.197 302.849 351.883C303.01 351.568 303.085 351.217 303.066 350.865C303.058 350.415 302.907 349.979 302.635 349.62C302.534 349.486 302.4 349.379 302.247 349.31C302.247 349.31 302.363 349.449 302.526 349.707C302.755 350.06 302.873 350.475 302.862 350.896C302.859 351.199 302.777 351.495 302.623 351.756C302.469 352.017 302.249 352.233 301.985 352.383C301.676 352.587 301.312 352.693 300.941 352.686C300.571 352.679 300.211 352.559 299.91 352.342C299.609 352.126 299.381 351.823 299.257 351.473C299.132 351.124 299.117 350.745 299.213 350.387C299.282 350.091 299.426 349.818 299.631 349.594C299.837 349.371 300.096 349.204 300.385 349.11C300.772 348.97 301.191 348.946 301.591 349.04C301.91 349.111 302.057 349.198 302.072 349.172Z" fill="#263238"/>
<path d="M311.096 319.557C310.978 319.44 310.832 319.354 310.672 319.308C310.239 319.141 309.763 319.122 309.318 319.254C308.966 319.347 308.645 319.533 308.391 319.794C308.137 320.055 307.959 320.379 307.875 320.734C307.745 321.159 307.752 321.615 307.894 322.036C308.037 322.457 308.308 322.823 308.669 323.083C309.031 323.342 309.464 323.482 309.909 323.482C310.354 323.482 310.788 323.342 311.149 323.083C311.446 322.892 311.687 322.625 311.847 322.311C312.008 321.997 312.083 321.646 312.065 321.293C312.061 320.842 311.91 320.405 311.633 320.049C311.421 319.796 311.256 319.721 311.245 319.738C311.332 319.873 311.427 320.003 311.529 320.127C311.752 320.483 311.869 320.895 311.865 321.315C311.86 321.619 311.775 321.917 311.621 322.179C311.466 322.441 311.247 322.659 310.984 322.811C310.665 322.991 310.304 323.081 309.938 323.071C309.573 323.061 309.217 322.951 308.909 322.753C308.621 322.524 308.403 322.218 308.282 321.871C308.161 321.523 308.142 321.148 308.226 320.789C308.294 320.495 308.438 320.223 308.642 320.001C308.847 319.778 309.106 319.613 309.394 319.521C309.781 319.375 310.202 319.348 310.605 319.442C310.934 319.496 311.081 319.583 311.096 319.557Z" fill="#263238"/>
<path d="M315.063 306.345C314.972 306.361 314.781 312.911 314.602 320.96C314.424 329.009 314.439 335.564 314.538 335.553C314.638 335.542 314.821 328.987 315 320.938C315.178 312.889 315.184 306.358 315.063 306.345Z" fill="#263238"/>
<g opacity="0.3">
<path d="M341.929 376.195C341.929 376.195 340.212 348.042 340.355 334.381C343.321 340.87 346.654 348.298 347.51 355.384C348.311 362.774 346.32 370.197 341.929 376.195Z" fill="black"/>
</g>
<path d="M301.224 308.067C290.626 305.396 284.201 294.639 286.872 284.042C289.543 273.444 300.3 267.019 310.897 269.69C321.495 272.362 327.92 283.118 325.249 293.716C322.578 304.313 311.821 310.739 301.224 308.067Z" fill="white"/>
<path d="M297.001 306.496C296.915 306.431 296.822 306.376 296.724 306.333C296.516 306.211 296.248 306.053 295.911 305.854C295.467 305.603 295.043 305.318 294.643 305.001C294.074 304.605 293.533 304.169 293.024 303.698C291.606 302.433 290.382 300.966 289.393 299.344C288.076 297.2 287.179 294.826 286.75 292.346C286.188 289.123 286.444 285.81 287.495 282.711C288.546 279.612 290.359 276.827 292.767 274.611C294.138 273.321 295.701 272.25 297.399 271.436C298.271 271.01 299.17 270.641 300.089 270.331C301.032 270.06 301.99 269.847 302.958 269.692C307.065 269.029 311.277 269.7 314.975 271.605C318.673 273.511 321.664 276.551 323.508 280.28C323.947 281.148 324.33 282.043 324.655 282.959C324.94 283.888 325.16 284.835 325.314 285.794C325.639 287.651 325.676 289.547 325.425 291.416C324.982 294.87 323.63 298.145 321.507 300.906C319.801 303.102 317.649 304.912 315.194 306.217C312.738 307.522 310.034 308.292 307.259 308.478C305.365 308.617 303.46 308.471 301.608 308.047C300.929 307.905 300.259 307.72 299.604 307.495C299.114 307.352 298.636 307.172 298.174 306.955C297.82 306.804 297.532 306.681 297.304 306.593C297.21 306.545 297.109 306.51 297.006 306.487C297.093 306.549 297.186 306.604 297.282 306.65C297.49 306.773 297.783 306.887 298.127 307.055C298.583 307.292 299.058 307.491 299.548 307.648C300.195 307.889 300.858 308.086 301.532 308.235C303.396 308.725 305.326 308.919 307.25 308.81C310.079 308.654 312.842 307.897 315.356 306.588C317.869 305.279 320.073 303.449 321.823 301.221C324.025 298.397 325.432 295.035 325.897 291.484C326.161 289.569 326.128 287.625 325.8 285.719C325.506 283.721 324.89 281.784 323.974 279.984C323.054 278.109 321.839 276.394 320.376 274.904C318.861 273.376 317.122 272.087 315.219 271.084C311.425 269.143 307.111 268.46 302.902 269.135C301.898 269.291 300.906 269.52 299.935 269.821C298.994 270.142 298.074 270.521 297.18 270.957C295.445 271.799 293.849 272.9 292.447 274.224C289.826 276.663 287.906 279.757 286.884 283.188C286.084 285.907 285.872 288.767 286.264 291.574C286.655 294.382 287.641 297.075 289.155 299.472C290.171 301.11 291.431 302.584 292.892 303.841C293.411 304.315 293.968 304.745 294.558 305.126C294.967 305.436 295.401 305.711 295.855 305.949C296.192 306.148 296.46 306.306 296.668 306.428C296.775 306.465 296.887 306.487 297.001 306.496Z" fill="#263238"/>
<path d="M303.036 221.64C302.959 221.641 302.882 221.646 302.805 221.656C302.574 221.667 302.346 221.708 302.126 221.78C301.259 222.054 300.449 222.485 299.735 223.05C297.05 225.307 294.761 227.997 292.96 231.007C289.987 235.714 287.416 240.663 285.275 245.802C282.372 252.625 279.961 259.648 278.061 266.815C277.022 270.816 276.084 275.043 275.246 279.495C274.382 284.139 273.755 288.823 273.367 293.531C272.965 298.589 272.842 303.665 273 308.737L273.592 324.905L276.327 397.748L276.336 398.01L276.598 398.001C287.193 397.595 298.297 397.174 309.608 396.759C320.918 396.345 332.024 395.902 342.628 395.501L342.884 395.501L342.875 395.239L340.133 322.369L339.505 306.203L339.19 298.516C339.038 295.968 338.665 293.477 338.349 291.031C336.916 282.089 334.642 273.303 331.556 264.79C328.935 257.847 325.87 251.079 322.381 244.529C319.825 239.587 316.9 234.845 313.631 230.344C311.65 227.461 309.214 224.92 306.418 222.819C305.673 222.297 304.837 221.919 303.953 221.704C303.727 221.651 303.494 221.627 303.261 221.633C303.183 221.626 303.105 221.627 303.027 221.635C303.334 221.641 303.639 221.681 303.937 221.752C304.806 221.986 305.627 222.375 306.358 222.9C309.141 225.029 311.564 227.59 313.536 230.486C316.77 234.998 319.664 239.745 322.194 244.687C325.631 251.235 328.65 257.995 331.232 264.925C334.284 273.423 336.526 282.19 337.929 291.11C338.294 293.514 338.635 295.999 338.777 298.505L339.062 306.222L339.668 322.386L342.38 395.25L342.632 394.979L309.617 396.229L276.607 397.471L276.878 397.723L274.098 324.877L273.492 308.713C273.324 303.657 273.434 298.597 273.82 293.553C274.197 288.685 274.861 284.021 275.654 279.573C276.447 275.125 277.361 270.887 278.397 266.897C280.27 259.742 282.652 252.73 285.524 245.914C287.628 240.776 290.158 235.822 293.088 231.106C294.866 228.1 297.123 225.406 299.77 223.129C300.47 222.56 301.263 222.117 302.115 221.82C302.417 221.737 302.725 221.677 303.036 221.64Z" fill="#263238"/>
<path d="M395.829 480.981H221.554C216.09 480.981 210.85 478.81 206.986 474.946C203.123 471.083 200.952 465.843 200.952 460.379C200.952 454.915 203.123 449.675 206.986 445.811C210.85 441.948 216.09 439.777 221.554 439.777H395.829C401.293 439.777 406.533 441.948 410.397 445.811C414.26 449.675 416.431 454.915 416.431 460.379C416.431 465.843 414.26 471.083 410.397 474.946C406.533 478.81 401.293 480.981 395.829 480.981Z" fill="white"/>
<path d="M395.828 480.98L397.052 480.89C397.557 480.881 398.061 480.831 398.558 480.739C399.251 480.653 399.938 480.522 400.615 480.348L401.839 480.027C402.261 479.886 402.692 479.716 403.154 479.545L403.856 479.284L404.569 478.933C405.077 478.709 405.57 478.451 406.044 478.16C408.361 476.827 410.39 475.046 412.014 472.922C412.499 472.317 412.939 471.676 413.329 471.006C413.759 470.315 414.138 469.594 414.463 468.848C414.814 468.07 415.123 467.272 415.386 466.46C415.497 466.038 415.607 465.617 415.717 465.175L415.888 464.523L415.988 463.851L416.199 462.476L416.259 461.071V460.349V459.626C416.259 459.134 416.259 458.623 416.169 458.151C415.921 456.105 415.383 454.105 414.573 452.21C412.713 448.015 409.516 444.554 405.482 442.366C403.296 441.198 400.916 440.44 398.457 440.128C395.929 439.847 393.269 439.988 390.57 439.958L221.593 440.038C219.555 440.066 217.53 440.366 215.572 440.931C213.649 441.553 211.819 442.435 210.133 443.55C208.493 444.683 207.014 446.033 205.738 447.564C204.498 449.123 203.484 450.849 202.727 452.692C201.996 454.531 201.524 456.463 201.322 458.432C201.161 460.387 201.262 462.354 201.623 464.282C202.379 468.107 204.222 471.633 206.932 474.438C209.588 477.201 212.974 479.153 216.696 480.067C217.607 480.294 218.532 480.462 219.465 480.569C220.409 480.569 221.332 480.699 222.285 480.679H249.881L325.855 480.739L377.033 480.82L390.961 480.87H394.584H395.818H394.584H390.961H377.033L325.855 480.96L249.881 481.01H222.285C221.342 481.01 220.369 480.94 219.415 480.9C218.459 480.79 217.51 480.619 216.575 480.388C212.752 479.459 209.271 477.462 206.541 474.628C205.168 473.196 204 471.582 203.068 469.832C202.148 468.058 201.473 466.167 201.061 464.212C200.694 462.227 200.592 460.203 200.76 458.191C201.142 454.111 202.716 450.234 205.286 447.042C207.893 443.805 211.409 441.421 215.381 440.199C217.381 439.615 219.45 439.304 221.533 439.275L390.51 439.346C393.209 439.346 395.848 439.245 398.437 439.546C400.951 439.856 403.384 440.631 405.612 441.834C409.705 444.069 412.942 447.598 414.814 451.869C415.631 453.79 416.168 455.817 416.41 457.89C416.46 458.392 416.46 458.894 416.49 459.385V460.118V460.84C416.49 461.322 416.44 461.844 416.42 462.275C416.4 462.707 416.269 463.209 416.199 463.66L416.099 464.342L415.928 465.005C415.808 465.446 415.697 465.878 415.587 466.299C415.256 467.122 415.035 467.965 414.644 468.718C414.306 469.469 413.917 470.197 413.48 470.895C413.08 471.565 412.634 472.205 412.145 472.812C410.505 474.945 408.459 476.733 406.124 478.07C405.64 478.352 405.141 478.607 404.629 478.833L403.906 479.174L403.204 479.435C402.732 479.606 402.301 479.776 401.869 479.907L400.645 480.218C399.962 480.39 399.268 480.514 398.568 480.589C398.07 480.669 397.567 480.713 397.062 480.719L395.828 480.98Z" fill="#263238"/>
<path d="M394.414 464.562C397.995 460.98 397.995 455.173 394.413 451.591C390.832 448.009 385.024 448.009 381.443 451.591C377.861 455.173 377.861 460.98 381.443 464.562C385.024 468.143 390.832 468.143 394.414 464.562Z" fill="white"/>
<path d="M387.921 468.918C386.007 468.92 384.135 468.354 382.543 467.292C380.95 466.23 379.709 464.719 378.976 462.951C378.242 461.183 378.05 459.237 378.423 457.36C378.796 455.482 379.717 453.758 381.071 452.404C382.424 451.051 384.149 450.129 386.026 449.756C387.904 449.383 389.849 449.576 391.618 450.309C393.386 451.043 394.896 452.284 395.958 453.877C397.021 455.469 397.587 457.341 397.585 459.255C397.582 461.817 396.563 464.273 394.751 466.085C392.939 467.897 390.483 468.916 387.921 468.918ZM387.921 450.585C386.206 450.583 384.528 451.089 383.101 452.041C381.674 452.992 380.561 454.346 379.904 455.93C379.246 457.514 379.073 459.257 379.406 460.94C379.74 462.622 380.565 464.168 381.777 465.382C382.989 466.595 384.534 467.422 386.216 467.757C387.898 468.093 389.642 467.922 391.227 467.266C392.811 466.61 394.166 465.499 395.119 464.073C396.072 462.647 396.581 460.97 396.581 459.255C396.581 456.957 395.669 454.753 394.045 453.128C392.421 451.502 390.219 450.587 387.921 450.585Z" fill="#263238"/>
<path d="M395.585 464.251L395.049 465.1L402.813 470.002L403.348 469.153L395.585 464.251Z" fill="#263238"/>
<path d="M132.706 657.834L133.318 687.016L94.9049 687.919C95.0353 684.447 114.724 677.011 114.724 677.011L113.52 658.336L132.706 657.834Z" fill="#455A64"/>
<g opacity="0.6">
<path d="M126.564 675.165C126.926 675.251 127.242 675.47 127.45 675.779C127.658 676.087 127.743 676.462 127.688 676.83C127.586 677.195 127.351 677.508 127.029 677.706C126.708 677.905 126.323 677.976 125.952 677.904C125.751 677.877 125.558 677.808 125.387 677.7C125.215 677.593 125.069 677.45 124.957 677.281C124.846 677.112 124.772 676.921 124.74 676.721C124.709 676.521 124.721 676.317 124.775 676.122C124.83 675.927 124.925 675.746 125.056 675.591C125.186 675.436 125.348 675.311 125.531 675.224C125.714 675.137 125.913 675.09 126.115 675.087C126.318 675.084 126.519 675.124 126.704 675.205" fill="white"/>
</g>
<g opacity="0.6">
<path d="M133.318 687.016L133.128 684.075L96.37 686.082C96.37 686.082 94.6841 686.825 94.9049 687.959L133.318 687.016Z" fill="white"/>
</g>
<path d="M114.101 676.84C114.101 677.021 115.044 677.081 115.988 677.633C116.931 678.185 117.433 678.908 117.603 678.837C117.774 678.767 117.473 677.744 116.319 677.101C115.165 676.459 114.051 676.68 114.101 676.84Z" fill="#263238"/>
<path d="M110.107 678.516C110.107 678.687 110.89 678.968 111.552 679.701C112.214 680.433 112.415 681.226 112.555 681.216C112.696 681.206 112.836 680.212 112.003 679.299C111.171 678.386 110.107 678.346 110.107 678.516Z" fill="#263238"/>
<path d="M107.939 683.122C108.11 683.122 108.351 682.269 107.849 681.306C107.347 680.343 106.454 679.982 106.374 680.132C106.294 680.283 106.856 680.784 107.257 681.577C107.658 682.37 107.759 683.112 107.939 683.122Z" fill="#263238"/>
<path d="M114.341 672.556C114.422 672.716 115.285 672.455 116.348 672.496C117.412 672.536 118.245 672.837 118.355 672.686C118.466 672.536 117.633 671.914 116.348 671.883C115.064 671.853 114.231 672.425 114.341 672.556Z" fill="#263238"/>
<path d="M115.124 668.23C115.76 668.379 116.424 668.362 117.051 668.18C117.742 668.047 118.415 667.835 119.058 667.548C119.432 667.378 119.794 667.183 120.142 666.966C120.354 666.849 120.547 666.7 120.714 666.525C120.834 666.4 120.905 666.237 120.916 666.064C120.928 665.891 120.877 665.72 120.774 665.581C120.677 665.454 120.55 665.353 120.405 665.284C120.26 665.216 120.101 665.184 119.941 665.19C119.7 665.196 119.46 665.233 119.229 665.3C118.819 665.405 118.419 665.546 118.035 665.722C117.399 666.009 116.813 666.395 116.299 666.866C115.426 667.658 115.135 668.331 115.205 668.361C115.275 668.391 115.706 667.859 116.6 667.187C117.121 666.801 117.687 666.481 118.285 666.234C118.645 666.095 119.014 665.981 119.389 665.892C119.791 665.782 120.132 665.772 120.242 665.892C120.353 666.013 120.242 665.983 120.242 666.103C120.121 666.229 119.982 666.337 119.831 666.424C119.506 666.632 119.171 666.822 118.827 666.996C118.237 667.293 117.618 667.532 116.981 667.709C116.35 667.837 115.73 668.011 115.124 668.23Z" fill="#263238"/>
<path d="M115.347 668.481C115.693 667.961 115.856 667.339 115.808 666.715C115.829 666.033 115.724 665.352 115.497 664.708C115.36 664.327 115.186 663.961 114.975 663.615C114.857 663.373 114.68 663.165 114.461 663.009C114.242 662.853 113.988 662.754 113.721 662.721C113.553 662.729 113.39 662.783 113.251 662.877C113.111 662.971 112.999 663.101 112.928 663.253C112.834 663.466 112.776 663.693 112.758 663.926C112.692 664.331 112.692 664.744 112.758 665.15C112.886 665.831 113.183 666.469 113.621 667.006C114.403 667.93 115.186 668.12 115.206 668.06C115.226 668 114.604 667.649 114.002 666.755C113.661 666.246 113.438 665.666 113.35 665.06C113.295 664.71 113.295 664.355 113.35 664.006C113.35 663.625 113.54 663.303 113.691 663.344C113.841 663.384 114.223 663.615 114.383 663.926C114.581 664.244 114.749 664.58 114.885 664.929C115.116 665.506 115.259 666.115 115.306 666.735C115.457 667.789 115.276 668.451 115.347 668.481Z" fill="#263238"/>
<path d="M161.817 660.263L165.52 689.213L203.652 684.477C203.01 681.065 182.449 676.6 182.449 676.6L180.903 657.945L161.817 660.263Z" fill="#455A64"/>
<g opacity="0.6">
<path d="M170.427 676.499C170.08 676.637 169.797 676.9 169.635 677.237C169.473 677.573 169.444 677.959 169.554 678.316C169.71 678.659 169.99 678.932 170.337 679.08C170.684 679.229 171.074 679.243 171.43 679.119C171.799 678.974 172.099 678.694 172.269 678.336C172.439 677.978 172.465 677.569 172.344 677.192C172.143 676.861 171.828 676.614 171.459 676.498C171.09 676.382 170.691 676.404 170.337 676.56" fill="white"/>
</g>
<g opacity="0.6">
<path d="M165.519 689.214L165.268 686.273L201.915 682.842C201.915 682.842 203.651 683.283 203.651 684.477L165.519 689.214Z" fill="white"/>
</g>
<path d="M183.001 676.339C183.001 676.519 182.098 676.71 181.245 677.393C180.392 678.075 180 678.868 179.82 678.817C179.639 678.767 179.82 677.724 180.823 676.921C181.827 676.118 183.021 676.168 183.001 676.339Z" fill="#263238"/>
<path d="M187.186 677.402C187.256 677.573 186.484 677.974 185.942 678.797C185.4 679.62 185.309 680.423 185.129 680.443C184.948 680.463 184.697 679.44 185.39 678.436C186.082 677.433 187.166 677.262 187.186 677.402Z" fill="#263238"/>
<path d="M190.006 681.647C189.845 681.708 189.484 680.865 189.845 679.841C190.206 678.818 191.029 678.326 191.12 678.456C191.21 678.587 190.738 679.179 190.457 680.022C190.176 680.865 190.196 681.607 190.006 681.647Z" fill="#263238"/>
<path d="M182.149 672.134C182.088 672.304 181.205 672.134 180.142 672.365C179.078 672.595 178.315 672.977 178.205 672.836C178.095 672.696 178.797 671.973 180.031 671.753C181.266 671.532 182.229 671.983 182.149 672.134Z" fill="#263238"/>
<path d="M180.724 667.97C180.117 668.205 179.461 668.281 178.817 668.191C178.117 668.167 177.422 668.056 176.75 667.859C176.352 667.752 175.963 667.615 175.586 667.448C175.358 667.364 175.145 667.245 174.954 667.097C174.818 666.99 174.724 666.84 174.687 666.671C174.651 666.503 174.674 666.327 174.753 666.174C174.835 666.035 174.947 665.918 175.081 665.829C175.214 665.74 175.367 665.683 175.526 665.662C175.765 665.631 176.008 665.631 176.248 665.662C176.666 665.702 177.08 665.783 177.482 665.903C178.156 666.092 178.796 666.387 179.379 666.776C180.382 667.438 180.734 668.06 180.673 668.1C180.613 668.14 180.101 667.669 179.128 667.147C178.218 666.647 177.213 666.346 176.178 666.264C175.756 666.214 175.415 666.264 175.335 666.434C175.255 666.605 175.335 666.535 175.405 666.635C175.546 666.741 175.701 666.826 175.867 666.886C176.215 667.051 176.573 667.192 176.94 667.307C177.569 667.511 178.213 667.659 178.867 667.749C179.491 667.775 180.111 667.849 180.724 667.97Z" fill="#263238"/>
<path d="M180.512 668.231C180.093 667.764 179.843 667.171 179.8 666.545C179.68 665.881 179.68 665.202 179.8 664.538C179.873 664.141 179.991 663.754 180.151 663.384C180.23 663.128 180.373 662.896 180.566 662.71C180.759 662.524 180.996 662.39 181.255 662.32C181.422 662.301 181.591 662.329 181.743 662.4C181.895 662.47 182.025 662.582 182.118 662.722C182.237 662.923 182.328 663.139 182.389 663.364C182.507 663.757 182.558 664.168 182.539 664.578C182.526 665.287 182.325 665.979 181.957 666.585C181.325 667.589 180.573 667.92 180.542 667.86C180.512 667.799 181.084 667.358 181.546 666.394C181.806 665.839 181.94 665.232 181.937 664.618C181.935 664.278 181.881 663.939 181.777 663.615C181.676 663.233 181.486 662.942 181.335 663.003C181.185 663.063 180.864 663.354 180.743 663.675C180.595 663.999 180.474 664.335 180.382 664.678C180.248 665.284 180.197 665.905 180.231 666.525C180.332 667.579 180.573 668.231 180.512 668.231Z" fill="#263238"/>
<path d="M102.914 502.967L162.712 504.883C162.712 504.883 176.811 598.99 176.419 605.543L185.109 673.78L159.822 674.673C159.822 674.673 155.808 652.526 153.068 637.374C151.222 627.339 147.85 612.507 146.937 604.088C146.024 595.669 131.232 536.854 131.232 536.854C131.232 536.854 132.326 605.091 132.296 607.901C132.266 610.711 135.226 674.593 135.226 674.593H110.139C108.844 663.063 105.764 616.922 105.121 607.6C103.917 590.762 100.104 543.196 99.5923 531.044C99.0805 518.892 102.914 502.967 102.914 502.967Z" fill="#263238"/>
<path d="M106.856 503.428C107.136 502.013 107.136 500.558 106.856 499.143C106.562 500.556 106.562 502.015 106.856 503.428Z" fill="#455A64"/>
<path d="M104.368 504.562C104.844 502.757 104.684 500.844 103.916 499.143C103.943 500.051 104.031 500.956 104.177 501.852C104.18 502.759 104.244 503.664 104.368 504.562Z" fill="#455A64"/>
<path d="M126.704 500.077C127.189 500.176 127.631 500.426 127.968 500.789C128.137 500.98 128.261 501.206 128.332 501.451C128.403 501.695 128.419 501.952 128.38 502.204C128.295 502.493 128.132 502.752 127.909 502.954C127.686 503.156 127.411 503.292 127.115 503.348C126.82 503.405 126.514 503.378 126.233 503.272C125.951 503.165 125.705 502.983 125.52 502.746C125.393 502.526 125.315 502.281 125.291 502.028C125.267 501.776 125.297 501.521 125.379 501.281C125.555 500.815 125.88 500.42 126.303 500.157C126.303 500.157 126.132 500.157 125.881 500.267C125.525 500.47 125.249 500.789 125.098 501.17C124.973 501.454 124.915 501.763 124.929 502.073C124.943 502.383 125.028 502.685 125.179 502.957C125.4 503.275 125.708 503.523 126.067 503.67C126.426 503.817 126.82 503.857 127.202 503.785C127.583 503.713 127.935 503.531 128.215 503.263C128.495 502.995 128.692 502.652 128.781 502.274C128.822 501.966 128.791 501.652 128.69 501.358C128.589 501.063 128.421 500.796 128.199 500.578C127.916 500.281 127.542 500.087 127.136 500.026C126.855 499.996 126.704 500.056 126.704 500.077Z" fill="#455A64"/>
<path d="M154.271 603.927C156.454 603.266 158.593 602.465 160.673 601.529C162.811 600.729 164.896 599.794 166.915 598.729C164.73 599.394 162.588 600.195 160.503 601.128C158.369 601.93 156.288 602.865 154.271 603.927Z" fill="#455A64"/>
<path d="M157.492 361.525C157.301 358.043 155.153 355.895 152.153 354.119C150.64 353.241 148.938 352.742 147.191 352.663C145.444 352.584 143.704 352.929 142.118 353.668C140.011 354.671 138.164 356.377 135.856 356.678C132.043 357.17 128.441 353.668 124.708 354.52C123.594 354.788 122.607 355.432 121.915 356.344C121.222 357.257 120.867 358.381 120.91 359.525C120.952 360.67 121.39 361.764 122.148 362.623C122.906 363.481 123.938 364.051 125.069 364.234C122.57 364.595 121.165 367.756 122.058 370.095C122.952 372.433 125.591 373.807 128.079 373.858C130.614 373.777 133.079 373.003 135.204 371.62C137.382 370.356 139.419 368.83 141.697 367.746C143.933 366.539 146.523 366.159 149.012 366.673C152.314 367.546 154.652 370.687 155.505 373.958C156.358 377.229 155.996 380.752 155.505 384.123C155.013 387.495 154.341 390.897 154.662 394.299C154.659 394.492 154.702 394.683 154.785 394.857C154.869 395.031 154.991 395.183 155.143 395.302C155.645 395.583 156.227 395.112 156.599 394.67C160.825 389.656 164.023 383.859 166.011 377.611C167.165 373.998 167.797 370.476 166.423 366.944C165.048 363.411 160.402 360.05 157.451 361.485" fill="#263238"/>
<path d="M160.732 378.343L155.163 412.733C154.16 419.155 149.945 425.367 139.87 423.259C131.26 420.771 131.902 414.579 133.026 406.943C133.026 406.943 123.553 404.484 124.406 394.851C124.808 390.194 126.413 380.681 128.009 372.092C128.823 367.644 131.283 363.665 134.897 360.949C138.512 358.232 143.018 356.976 147.517 357.431L148.45 357.521C158.394 359.157 162.599 368.449 160.732 378.343Z" fill="#FFBE9D"/>
<path d="M133.027 406.943C137.467 407.377 141.938 406.531 145.912 404.504C145.912 404.504 142.139 411.649 132.636 409.823L133.027 406.943Z" fill="#EB996E"/>
<path d="M129.896 380.511C129.856 380.868 129.958 381.227 130.179 381.51C130.4 381.793 130.724 381.979 131.08 382.026C131.253 382.059 131.431 382.057 131.603 382.019C131.775 381.982 131.938 381.909 132.081 381.807C132.225 381.705 132.346 381.575 132.438 381.424C132.53 381.274 132.59 381.107 132.616 380.932C132.655 380.575 132.554 380.216 132.332 379.933C132.111 379.65 131.788 379.465 131.431 379.417C131.259 379.386 131.081 379.389 130.909 379.427C130.738 379.465 130.576 379.538 130.433 379.64C130.29 379.742 130.168 379.871 130.076 380.021C129.984 380.171 129.923 380.337 129.896 380.511Z" fill="#263238"/>
<path d="M129.595 377.019C129.745 377.22 130.869 376.547 132.344 376.708C133.82 376.868 134.833 377.711 135.014 377.541C135.194 377.37 134.953 377.129 134.522 376.738C133.925 376.229 133.186 375.917 132.405 375.845C131.636 375.76 130.861 375.929 130.197 376.326C129.705 376.628 129.525 376.929 129.595 377.019Z" fill="#263238"/>
<path d="M143.353 382.638C143.313 382.996 143.415 383.354 143.636 383.637C143.857 383.921 144.181 384.106 144.537 384.154C144.71 384.187 144.888 384.184 145.06 384.147C145.232 384.109 145.395 384.037 145.539 383.935C145.682 383.832 145.803 383.702 145.895 383.552C145.987 383.402 146.047 383.234 146.073 383.06C146.112 382.703 146.011 382.344 145.79 382.061C145.568 381.777 145.245 381.592 144.888 381.545C144.716 381.513 144.538 381.516 144.367 381.555C144.195 381.593 144.033 381.665 143.89 381.767C143.747 381.869 143.625 381.999 143.533 382.148C143.441 382.298 143.38 382.465 143.353 382.638Z" fill="#263238"/>
<path d="M143.816 378.755C143.976 378.945 145.09 378.283 146.565 378.434C148.04 378.584 149.054 379.437 149.234 379.277C149.415 379.116 149.174 378.865 148.743 378.474C148.146 377.965 147.406 377.653 146.625 377.581C145.858 377.5 145.085 377.665 144.418 378.052C143.926 378.353 143.745 378.665 143.816 378.755Z" fill="#263238"/>
<path d="M137.634 389.181C136.881 388.852 136.088 388.623 135.276 388.499C134.904 388.428 134.553 388.318 134.513 388.047C134.524 387.655 134.649 387.275 134.874 386.953C135.326 386.08 135.797 385.157 136.279 384.194C138.286 380.26 139.701 377.009 139.54 376.928C138.082 379.167 136.8 381.515 135.707 383.953L134.342 386.743C134.065 387.174 133.945 387.688 134.001 388.198C134.04 388.338 134.112 388.467 134.209 388.575C134.307 388.682 134.428 388.766 134.563 388.82C134.768 388.892 134.98 388.942 135.195 388.97C135.996 389.14 136.815 389.211 137.634 389.181Z" fill="#263238"/>
<path d="M144.296 372.925C144.396 373.346 145.891 373.306 147.607 373.687C149.323 374.069 150.678 374.691 150.939 374.35C151.059 374.179 150.859 373.778 150.327 373.346C149.625 372.801 148.81 372.42 147.942 372.232C147.073 372.045 146.173 372.055 145.309 372.262C144.607 372.443 144.256 372.734 144.296 372.925Z" fill="#263238"/>
<path d="M130.568 372.794C130.799 373.165 131.853 372.914 133.077 373.025C134.301 373.135 135.315 373.476 135.586 373.145C135.706 372.985 135.586 372.633 135.154 372.272C134.587 371.836 133.903 371.577 133.19 371.527C132.476 371.477 131.763 371.639 131.14 371.991C130.649 372.292 130.468 372.623 130.568 372.794Z" fill="#263238"/>
<path d="M159.237 385.388C159.408 385.328 166.041 384.094 165.168 390.646C164.295 397.199 157.893 394.982 157.913 394.791C157.933 394.6 159.237 385.388 159.237 385.388Z" fill="#FFBE9D"/>
<path d="M160.241 392.573C160.241 392.573 160.341 392.663 160.522 392.784C160.78 392.933 161.084 392.979 161.375 392.914C161.835 392.7 162.229 392.369 162.518 391.952C162.807 391.536 162.981 391.051 163.021 390.546C163.116 389.987 163.081 389.414 162.92 388.87C162.89 388.654 162.805 388.45 162.676 388.274C162.546 388.099 162.375 387.959 162.178 387.866C162.052 387.812 161.911 387.804 161.781 387.845C161.65 387.885 161.538 387.971 161.465 388.087C161.345 388.258 161.375 388.398 161.335 388.398C161.295 388.398 161.214 388.268 161.335 388.007C161.391 387.85 161.502 387.719 161.646 387.636C161.844 387.523 162.077 387.49 162.298 387.545C162.55 387.642 162.773 387.801 162.948 388.006C163.124 388.211 163.245 388.456 163.302 388.719C163.505 389.327 163.557 389.974 163.452 390.606C163.407 391.189 163.193 391.746 162.837 392.209C162.481 392.672 161.997 393.022 161.445 393.215C161.265 393.239 161.081 393.222 160.908 393.167C160.734 393.111 160.575 393.018 160.442 392.894C160.231 392.733 160.221 392.583 160.241 392.573Z" fill="#EB996E"/>
<path d="M128.793 363.171C129.916 361.401 131.465 359.942 133.299 358.926C137.144 356.535 141.645 355.415 146.163 355.725C150.698 356.078 154.919 358.179 157.934 361.585C160.24 364.378 161.674 367.788 162.059 371.389C162.433 374.976 162.092 378.602 161.055 382.056C160.734 383.612 159.963 385.039 158.837 386.16C158.085 386.803 156.83 387.164 156.158 386.482C155.783 386.032 155.567 385.471 155.546 384.886C154.793 379.688 154.091 374.099 156.439 369.402C155.401 367.599 154.004 366.028 152.335 364.786C151.496 364.171 150.543 363.729 149.532 363.486C148.521 363.243 147.471 363.204 146.444 363.371C143.434 363.973 141.326 366.643 138.788 368.389C136.957 369.626 134.859 370.41 132.666 370.677C130.473 370.944 128.248 370.686 126.174 369.924L128.793 363.171Z" fill="#263238"/>
<path d="M136.328 393.165C136.404 393.788 136.57 394.396 136.82 394.971C136.948 395.259 137.134 395.516 137.368 395.727C137.601 395.937 137.876 396.097 138.174 396.196C138.502 396.264 138.842 396.25 139.163 396.153C139.484 396.057 139.775 395.882 140.011 395.644C140.471 395.155 140.766 394.533 140.854 393.868C140.954 393.265 140.854 392.513 140.262 392.312C140.017 392.257 139.764 392.257 139.519 392.312L136.167 392.924" fill="#EB996E"/>
<path d="M137.032 395.965C137.581 396.112 138.152 396.16 138.718 396.105C139.301 396.009 139.827 395.697 140.193 395.232C140.407 394.949 140.559 394.624 140.639 394.278C140.719 393.932 140.724 393.573 140.654 393.225C140.621 393.048 140.563 392.876 140.484 392.714C140.393 392.553 140.414 392.563 140.273 392.563C140.094 392.583 139.917 392.613 139.741 392.653L139.189 392.754L137.283 393.075C136.701 393.213 136.103 393.264 135.507 393.225C136.037 392.951 136.611 392.768 137.202 392.683C137.744 392.543 138.376 392.402 139.089 392.242L139.631 392.121C139.832 392.121 139.982 392.031 140.243 392.011C140.405 391.998 140.566 392.037 140.705 392.121C140.822 392.213 140.918 392.329 140.986 392.463C141.089 392.669 141.163 392.888 141.206 393.115C141.294 393.543 141.284 393.985 141.178 394.409C141.072 394.832 140.873 395.227 140.594 395.563C140.132 396.103 139.476 396.438 138.768 396.497C138.309 396.553 137.843 396.48 137.423 396.286C137.132 396.125 137.012 395.995 137.032 395.965Z" fill="#263238"/>
<path d="M112.596 379.026L111.04 378.604L86.8262 402.136L67.1779 404.504C67.1779 404.504 67.3786 398.574 74.7542 391.007C81.3772 384.244 96.7808 376.216 101.999 372.061C102.673 371.492 103.435 371.038 104.257 370.717L112.596 379.026Z" fill="#FFBE9D"/>
<path d="M112.606 367.827L115.085 367.124L120.925 364.355L127.568 366.833C127.568 366.833 127.418 369.101 125.672 368.479L132.636 370.777C132.636 370.777 132.064 372.433 131.753 372.543C131.442 372.654 135.837 373.015 135.837 373.015C135.837 373.015 135.837 375.253 131.672 375.212C127.508 375.172 125.892 374.46 125.892 374.46L122.551 375.353L122.681 377.36L127.237 377.29L127.026 379.839C125.091 380.247 123.135 380.549 121.166 380.742C121.166 380.742 114.142 380.842 112.235 379.919C110.328 378.996 107.9 377.681 107.9 377.681L104.257 370.737L112.606 367.827Z" fill="#FFBE9D"/>
<path d="M118.877 369.001C118.877 369.061 119.268 368.871 119.881 368.59C120.7 368.238 121.489 367.818 122.239 367.335H121.938L122.209 367.506C123.038 368.036 123.973 368.378 124.948 368.509C125.691 368.61 126.152 368.509 126.152 368.509C124.872 368.204 123.637 367.731 122.48 367.104L122.229 366.944L122.078 366.844L121.928 366.954C121.115 367.516 120.262 367.957 119.7 368.309C119.138 368.66 118.827 368.951 118.877 369.001Z" fill="#EB996E"/>
<path d="M121.015 372.543C121.015 372.543 121.467 372.704 122.139 372.413C122.812 372.122 123.564 371.409 124.518 371.008H124.277C124.705 371.296 125.154 371.551 125.621 371.77C126.796 372.332 128.073 372.646 129.374 372.694C129.909 372.762 130.452 372.704 130.96 372.523C129.201 372.382 127.475 371.969 125.842 371.299C125.398 371.092 124.968 370.854 124.558 370.586L124.427 370.516H124.317C123.233 371.068 122.601 371.801 122.009 372.102C121.417 372.403 121.015 372.463 121.015 372.543Z" fill="#EB996E"/>
<path d="M114.794 374.721C114.794 374.801 115.306 374.651 116.098 374.661C117.125 374.674 118.126 374.976 118.988 375.534C119.559 375.902 120.047 376.383 120.423 376.949L120.484 377.039H120.574C121.347 377.259 122.149 377.357 122.952 377.33C122.233 376.965 121.461 376.718 120.664 376.597L120.815 376.698C120.438 376.045 119.912 375.491 119.279 375.082C118.336 374.463 117.212 374.181 116.088 374.279C115.225 374.38 114.764 374.671 114.794 374.721Z" fill="#EB996E"/>
<path d="M107.9 377.661C107.96 377.714 108.028 377.758 108.1 377.792L108.733 378.153L111.161 379.467C111.735 379.82 112.352 380.096 112.997 380.29C113.774 380.471 114.562 380.598 115.356 380.672C117.062 380.842 119.008 380.912 121.166 380.912L123.785 380.641C124.754 380.561 125.714 380.396 126.655 380.15H126.755V380.019C126.896 379.146 127.046 378.193 127.207 377.22L127.257 376.939H126.976L122.641 377.119L122.902 377.34C122.902 376.728 122.812 376.045 122.771 375.333L122.581 375.594L125.932 374.701H125.762C127.389 375.196 129.079 375.452 130.779 375.463C131.661 375.519 132.546 375.475 133.418 375.333C133.895 375.274 134.353 375.115 134.763 374.866C135.173 374.616 135.525 374.283 135.797 373.888C135.948 373.624 136.037 373.329 136.058 373.025V372.794H135.807C134.803 372.704 133.73 372.614 132.716 372.503L131.973 372.403H131.813V372.453C131.843 372.48 131.865 372.515 131.876 372.554C131.886 372.594 131.885 372.635 131.873 372.674C131.873 372.764 131.692 372.884 131.733 372.844C131.791 372.82 131.846 372.786 131.893 372.744C132.002 372.631 132.093 372.502 132.164 372.363C132.396 371.902 132.597 371.426 132.766 370.938L132.856 370.687L132.606 370.607L125.581 368.319L125.421 368.78C125.703 368.884 126.006 368.919 126.304 368.881C126.609 368.826 126.887 368.667 127.086 368.429C127.422 367.992 127.618 367.464 127.648 366.914V366.743L127.468 366.673L120.815 364.224H120.734H120.654L114.824 367.024L112.385 367.727L110.258 368.479L106.886 369.703L104.769 370.486C104.518 370.561 104.276 370.662 104.046 370.787C104.301 370.731 104.552 370.661 104.799 370.576L106.946 369.884L110.348 368.75L112.476 368.038L114.924 367.375L120.785 364.636H120.614L127.257 367.134L127.096 366.894C127.07 367.341 126.913 367.77 126.645 368.128C126.5 368.272 126.315 368.368 126.114 368.404C125.913 368.44 125.707 368.413 125.521 368.329L125.36 368.8L132.315 371.108L132.154 370.777C132.001 371.24 131.809 371.69 131.582 372.122C131.539 372.212 131.485 372.296 131.422 372.373C131.45 372.408 131.47 372.449 131.482 372.493C131.381 372.232 131.482 372.423 131.411 372.373H131.341C131.295 372.411 131.263 372.464 131.251 372.523C131.241 372.566 131.243 372.611 131.255 372.653C131.267 372.695 131.29 372.733 131.321 372.764C131.401 372.844 131.381 372.814 131.401 372.824H131.492H131.702L132.475 372.925C133.479 373.045 134.482 373.135 135.576 373.226L135.345 372.975C135.322 373.183 135.257 373.384 135.154 373.567C134.921 373.895 134.623 374.17 134.277 374.376C133.931 374.581 133.547 374.713 133.148 374.761C132.312 374.897 131.463 374.937 130.619 374.881C128.985 374.876 127.36 374.64 125.792 374.179H125.692H125.621L122.28 375.082H122.079V375.283C122.079 375.975 122.169 376.658 122.209 377.29V377.531H122.45L126.775 377.33L126.535 377.059C126.384 378.062 126.233 378.996 126.103 379.869L126.223 379.708C125.327 379.933 124.414 380.09 123.494 380.18L120.895 380.471C118.758 380.471 116.821 380.471 115.125 380.31C114.342 380.257 113.564 380.15 112.797 379.989C112.166 379.81 111.559 379.554 110.991 379.226L108.522 378.002L107.87 377.701C107.98 377.681 107.91 377.651 107.9 377.661Z" fill="#EB996E"/>
<path d="M116.289 370.105C116.926 371.173 117.81 372.071 118.868 372.724C119.835 373.508 120.973 374.051 122.19 374.31C122.25 374.169 120.785 373.457 119.179 372.303C117.574 371.149 116.41 370.005 116.289 370.105Z" fill="#EB996E"/>
<path d="M67.3881 403.772L86.8256 402.136L109.745 410.857L114.763 413.927L107.618 438.432C107.618 438.432 71.7031 417.269 70.1778 415.463C68.8096 413.88 67.8419 411.992 67.3564 409.958C66.8709 407.923 66.8818 405.801 67.3881 403.772Z" fill="#FFB64F"/>
<path d="M171.151 421.784L177.834 425.929L162.4 486.69L165.2 521.722C161.186 525.194 151.151 528.174 132.085 527.09C113.019 526.007 100.295 517.708 100.295 517.708L102.121 481.673L106.466 441.011L111.333 413.205L126.024 414.268L131.754 410.877L134.323 412.161L137.614 421.293L146.184 415.091L156.219 410.264L159.882 417.098L171.151 421.784Z" fill="#FFB64F"/>
<path d="M111.332 420.279C111.118 420.711 110.943 421.161 110.81 421.624C110.489 422.507 110.088 423.791 109.606 425.397C108.379 429.576 107.374 433.816 106.596 438.101C105.841 442.385 105.311 446.706 105.01 451.046C104.9 452.712 104.85 454.056 104.839 454.99C104.788 455.473 104.788 455.961 104.839 456.445C104.935 455.968 104.992 455.485 105.01 455C105.1 453.996 105.211 452.662 105.351 451.076C105.662 447.765 106.194 443.189 107.087 438.191C107.98 433.194 109.044 428.718 109.897 425.497C110.308 423.962 110.66 422.677 110.901 421.684C111.096 421.233 111.241 420.762 111.332 420.279Z" fill="#263238"/>
<path d="M140.353 420.761C140.842 420.677 141.311 420.504 141.737 420.249C142.926 419.623 143.955 418.734 144.748 417.65L144.387 417.55C144.596 420.543 145.2 423.496 146.183 426.33L146.293 426.651L146.574 426.461L147.277 425.969C150.739 423.591 153.85 421.413 156.087 419.808L158.716 417.891C159.052 417.672 159.362 417.417 159.64 417.128C159.284 417.287 158.947 417.486 158.636 417.72L155.917 419.507C153.619 421.022 150.478 423.159 147.026 425.528L146.313 426.009L146.715 426.14C145.74 423.346 145.107 420.445 144.828 417.5V416.958L144.517 417.399C143.771 418.465 142.81 419.364 141.697 420.038C140.824 420.53 140.333 420.711 140.353 420.761Z" fill="#263238"/>
<path d="M126.615 415.352C127.606 416.668 128.696 417.906 129.877 419.055L130.057 419.246L130.238 419.045C130.912 418.256 131.639 417.515 132.415 416.827C132.837 416.466 133.248 416.125 133.66 415.824L134.272 415.372C134.318 415.361 134.365 415.354 134.412 415.352C134.412 415.352 134.412 415.352 134.503 415.503L135.436 417.891C135.69 418.645 136.027 419.368 136.439 420.048C136.315 419.263 136.099 418.496 135.797 417.76C135.536 417.008 135.255 416.195 134.964 415.332C134.938 415.24 134.893 415.155 134.833 415.081C134.772 415.006 134.698 414.945 134.613 414.901C134.516 414.868 134.412 414.859 134.311 414.875C134.21 414.891 134.114 414.93 134.031 414.991L133.389 415.452C132.957 415.764 132.526 416.115 132.104 416.456C131.305 417.158 130.566 417.927 129.897 418.754H130.258C129.134 417.527 127.916 416.39 126.615 415.352Z" fill="#263238"/>
<path d="M130.589 524.461C124.155 523.253 117.527 523.581 111.245 525.419C104.962 527.257 99.2024 530.553 94.4348 535.038C89.6671 539.524 86.0263 545.072 83.8088 551.23C81.5913 557.389 80.8598 563.985 81.6738 570.48C82.4879 576.975 84.8245 583.186 88.4934 588.607C92.1623 594.028 97.0598 598.506 102.787 601.676C108.514 604.846 114.909 606.619 121.451 606.85C127.993 607.08 134.497 605.763 140.433 603.004C148.413 599.288 155.008 593.134 159.266 585.43C163.525 577.725 165.227 568.867 164.128 560.133C163.028 551.399 159.184 543.239 153.149 536.83C147.115 530.421 139.201 526.093 130.548 524.471L130.589 524.461ZM115.767 603.415C106.692 601.701 98.5277 596.801 92.7461 589.599C86.9645 582.397 83.9457 573.366 84.234 564.135C84.5222 554.904 88.0984 546.079 94.3181 539.252C100.538 532.425 108.992 528.044 118.156 526.898C127.32 525.753 136.592 527.92 144.301 533.007C152.009 538.094 157.647 545.767 160.197 554.644C162.748 563.52 162.044 573.016 158.212 581.419C154.381 589.822 147.673 596.58 139.299 600.475C131.955 603.891 123.725 604.919 115.767 603.415Z" fill="#455A64"/>
<path d="M122.992 608.895C133.94 608.91 144.496 604.822 152.578 597.437C160.66 590.053 165.681 579.908 166.652 569.004C167.622 558.099 164.472 547.227 157.821 538.531C151.171 529.835 141.503 523.947 130.725 522.028C119.947 520.109 108.841 522.299 99.5976 528.165C90.3544 534.031 83.6447 543.147 80.7921 553.717C77.9395 564.286 79.1509 575.541 84.1876 585.261C89.2242 594.981 97.7203 602.461 108 606.225C112.802 607.99 117.877 608.894 122.992 608.895ZM122.902 528.505C128.022 528.502 133.086 529.566 137.77 531.632C142.455 533.697 146.657 536.718 150.107 540.5C153.558 544.282 156.181 548.743 157.808 553.597C159.436 558.451 160.033 563.592 159.56 568.69C159.087 573.787 157.556 578.73 155.063 583.203C152.571 587.675 149.172 591.577 145.085 594.661C140.998 597.744 136.313 599.94 131.328 601.109C126.344 602.278 121.17 602.394 116.138 601.449C110.395 600.359 104.992 597.922 100.374 594.337C95.756 590.752 92.0553 586.122 89.5762 580.827C86.9712 575.222 85.8194 569.052 86.2272 562.885C86.635 556.717 88.5892 550.752 91.9096 545.539C95.23 540.326 99.8096 536.033 105.226 533.056C110.642 530.079 116.721 528.514 122.902 528.505Z" fill="#455A64"/>
<path d="M224.053 524.732L223.682 523.829C222.899 521.892 221.173 520.758 219.829 521.31L159.078 546.026C158.777 546.146 158.676 546.598 158.847 547.029L161.436 553.392C161.616 553.823 161.998 554.074 162.299 553.953L223.05 529.187C224.395 528.636 224.846 526.629 224.053 524.732Z" fill="#455A64"/>
<path d="M167.316 454.729L174.622 478.903L170.959 528.174L181.736 529.529C181.736 529.529 194.079 487.603 192.855 480.017C191.631 472.43 186.593 450.333 186.593 450.333L167.316 454.729Z" fill="#FFBE9D"/>
<path d="M170.989 527.823L165.971 536.393L162.841 544.42L167.527 542.584C167.527 542.584 169.534 552.278 170.347 552.529C171.159 552.779 173.417 551.997 173.187 550.14C173.521 550.466 173.925 550.711 174.369 550.857C174.812 551.003 175.283 551.047 175.745 550.983C177.17 550.692 177.512 549.769 177.351 547.973C177.351 547.973 179.007 549.317 180 548.485C180.304 548.185 180.541 547.824 180.695 547.427C180.849 547.029 180.916 546.603 180.893 546.177C180.893 546.177 183.051 546.357 183.352 545.243C183.669 543.413 183.709 541.546 183.472 539.704C183.221 538.48 182.178 533.502 182.178 533.502L181.696 529.489L170.989 527.823Z" fill="#FFBE9D"/>
<path d="M172.164 544.551C172.555 545.423 172.809 546.351 172.916 547.301C173.164 548.226 173.269 549.184 173.227 550.141C172.834 549.269 172.58 548.341 172.475 547.391C172.227 546.466 172.122 545.508 172.164 544.551Z" fill="#EB996E"/>
<path d="M176.558 543.437C176.926 544.114 177.155 544.857 177.23 545.624C177.453 546.365 177.532 547.142 177.461 547.912C177.101 547.229 176.873 546.483 176.789 545.715C176.571 544.976 176.493 544.204 176.558 543.437Z" fill="#EB996E"/>
<path d="M180.231 542.403C180.449 543.012 180.565 543.653 180.573 544.3C180.743 545.303 181.014 546.156 180.884 546.206C180.438 545.694 180.173 545.048 180.131 544.37C179.979 543.718 180.014 543.036 180.231 542.403Z" fill="#EB996E"/>
<path d="M167.196 539.784C167.584 540.64 167.854 541.545 167.999 542.474C168.289 543.368 168.465 544.295 168.521 545.233C168.036 544.419 167.712 543.52 167.567 542.584C167.271 541.682 167.145 540.733 167.196 539.784Z" fill="#EB996E"/>
<path d="M193.448 496.293C193.448 495.47 196.819 483.99 195.796 478.039C194.772 472.089 182.53 431.879 180.884 429.009C179.587 427.073 177.777 425.538 175.656 424.574C173.294 425.854 171.213 427.597 169.539 429.699C167.865 431.8 166.632 434.218 165.912 436.806C163.453 445.627 163.453 456.695 163.453 456.695L173.298 481.11L172.124 494.978L193.448 496.293Z" fill="#FFB64F"/>
<path d="M164.076 455.893C164.176 455.893 163.986 454.087 164.076 451.196C164.138 449.516 164.302 447.84 164.568 446.179C165.205 442.082 166.464 438.106 168.301 434.388C169.047 432.87 169.885 431.399 170.809 429.983C172.395 427.554 173.579 426.2 173.509 426.139C173.182 426.411 172.886 426.717 172.626 427.053C171.875 427.905 171.178 428.803 170.538 429.742C169.562 431.145 168.684 432.614 167.909 434.137C166.009 437.886 164.731 441.919 164.126 446.079C163.886 447.774 163.758 449.484 163.745 451.196C163.729 452.346 163.786 453.496 163.915 454.638C163.929 455.061 163.983 455.481 164.076 455.893Z" fill="#263238"/>
<path d="M164.707 461C164.953 462.031 165.288 463.039 165.711 464.011C166.423 465.867 167.497 468.386 168.721 471.136L171.892 478.16C172.278 479.158 172.734 480.127 173.257 481.06C173.011 480.029 172.676 479.022 172.253 478.05C171.541 476.193 170.467 473.675 169.243 470.925L166.072 463.901C165.686 462.903 165.23 461.934 164.707 461Z" fill="#263238"/>
<path d="M172.725 482.054C174.891 480.898 177.146 479.918 179.469 479.124C181.845 478.503 184.268 478.077 186.714 477.849C185.996 477.692 185.257 477.652 184.526 477.729C182.76 477.813 181.011 478.113 179.318 478.622C177.623 479.129 175.998 479.847 174.481 480.759C173.831 481.094 173.238 481.531 172.725 482.054Z" fill="#263238"/>
<path d="M108.643 551.204C108.552 551.315 116.46 558.229 126.314 566.668C136.168 575.107 144.226 581.841 144.317 581.72C144.407 581.6 136.499 574.696 126.645 566.267C116.791 557.837 108.733 551.094 108.643 551.204Z" fill="white"/>
<path d="M98.4675 551.204C98.3672 551.315 105.03 557.225 113.349 564.34C121.668 571.455 128.472 577.195 128.572 577.084C128.672 576.974 121.999 571.063 113.69 563.948C105.382 556.834 98.5578 551.094 98.4675 551.204Z" fill="white"/>
<path d="M83.4845 565.303C83.4845 565.303 83.4844 565.092 83.5447 564.671C83.6049 564.249 83.6049 563.607 83.6651 562.794C83.6651 562.383 83.6651 561.921 83.7454 561.419C83.8256 560.918 83.9059 560.366 83.9962 559.764C84.0865 559.162 84.1869 558.529 84.2973 557.847C84.4077 557.165 84.6385 556.462 84.8091 555.699C85.735 552.011 87.2099 548.483 89.1842 545.233C91.7682 540.915 95.1579 537.133 99.1689 534.094L100.865 532.83C101.467 532.439 102.089 532.087 102.711 531.706C103.333 531.325 103.946 530.903 104.628 530.592L106.635 529.589L107.638 529.097L108.732 528.706L110.94 527.903C111.692 527.652 112.475 527.491 113.248 527.281C114.029 527.053 114.823 526.872 115.626 526.739C117.263 526.435 118.92 526.244 120.583 526.167C121.426 526.167 122.279 526.056 123.142 526.067L125.731 526.207C126.173 526.207 126.614 526.207 127.046 526.287L128.35 526.488C129.223 526.639 130.116 526.739 130.99 526.919C132.764 527.316 134.511 527.829 136.218 528.455C137.969 529.087 139.676 529.838 141.325 530.703C142.158 531.154 142.951 531.706 143.774 532.158C144.175 532.419 144.597 532.639 144.978 532.92L146.132 533.793C149.359 536.094 152.181 538.915 154.481 542.142L155.384 543.347L156.177 544.641L156.96 545.936C157.237 546.361 157.482 546.807 157.692 547.27L159.017 550.03C159.378 551.033 159.729 551.966 160.081 552.94C162.777 560.961 162.777 569.644 160.081 577.666C159.719 578.669 159.368 579.603 159.017 580.566C158.666 581.529 158.124 582.412 157.682 583.335L157.351 584.018L156.95 584.67L156.167 585.965L155.374 587.259L154.471 588.463C153.296 590.047 152.019 591.552 150.648 592.969C149.247 594.323 147.763 595.586 146.202 596.752L145.048 597.615C144.657 597.906 144.236 598.117 143.834 598.378C143.011 598.859 142.219 599.381 141.396 599.833C139.744 600.7 138.034 601.451 136.278 602.081C134.571 602.707 132.824 603.22 131.05 603.616C130.177 603.797 129.284 603.897 128.411 604.047L127.106 604.248C126.664 604.308 126.233 604.298 125.791 604.328L123.202 604.469C122.339 604.469 121.486 604.399 120.644 604.369C118.98 604.292 117.324 604.101 115.686 603.797C114.883 603.668 114.088 603.487 113.308 603.255C112.535 603.044 111.743 602.883 111 602.643L108.792 601.83L107.699 601.438L106.695 600.947L104.688 599.943C104.006 599.632 103.404 599.191 102.771 598.829C102.139 598.468 101.527 598.097 100.925 597.705L99.2292 596.441C95.2157 593.405 91.8256 589.623 89.2445 585.302C87.2555 582.078 85.7605 578.574 84.8091 574.906C84.6385 574.144 84.3775 573.451 84.2973 572.759C84.217 572.066 84.0865 571.434 83.9962 570.842C83.9059 570.25 83.7955 569.698 83.7454 569.196C83.6952 568.695 83.6851 568.193 83.6651 567.812C83.6049 567.009 83.5647 566.387 83.5447 565.945C83.5447 565.524 83.4845 565.303 83.4845 565.303C83.4845 565.303 83.4845 565.524 83.4845 565.945C83.4845 566.367 83.4845 567.009 83.5547 567.822C83.5547 568.236 83.5748 568.698 83.6149 569.206C83.6149 569.708 83.7554 570.26 83.8357 570.862L84.1167 572.789C84.2475 573.519 84.415 574.243 84.6184 574.956C85.5035 578.68 86.959 582.244 88.9334 585.523C91.5189 589.895 94.9266 593.726 98.9682 596.802L100.674 598.087C101.276 598.478 101.908 598.849 102.531 599.231C103.153 599.612 103.775 600.044 104.457 600.365L106.514 601.368L107.518 601.86L108.622 602.271L110.85 603.084C111.602 603.345 112.395 603.506 113.188 603.716C113.973 603.957 114.774 604.141 115.586 604.268C117.242 604.584 118.919 604.782 120.603 604.86C121.466 604.86 122.319 604.981 123.192 604.971L125.822 604.84C126.253 604.84 126.705 604.84 127.146 604.76L128.471 604.559C129.354 604.409 130.247 604.308 131.14 604.128C132.935 603.731 134.702 603.215 136.428 602.582C138.21 601.952 139.944 601.194 141.616 600.314C142.449 599.863 143.252 599.311 144.085 598.849C144.496 598.588 144.928 598.368 145.319 598.077L146.453 597.184C148.04 596.012 149.545 594.735 150.959 593.36C152.363 591.922 153.664 590.386 154.852 588.764L155.776 587.55L156.568 586.236L157.371 584.921L157.773 584.269L158.114 583.566L159.499 580.767L160.582 577.826C163.319 569.688 163.319 560.878 160.582 552.739L159.499 549.819C159.047 548.886 158.595 547.953 158.154 547.019C157.936 546.552 157.688 546.1 157.411 545.665L156.609 544.35L155.806 543.046L154.893 541.831C153.698 540.215 152.398 538.679 150.999 537.235C149.585 535.861 148.08 534.583 146.493 533.412L145.319 532.539C144.925 532.257 144.516 531.996 144.095 531.756C143.262 531.275 142.459 530.753 141.626 530.291C139.952 529.416 138.218 528.658 136.438 528.023C134.712 527.391 132.945 526.874 131.15 526.478C130.257 526.297 129.364 526.197 128.481 526.046L127.156 525.846C126.715 525.796 126.273 525.796 125.832 525.765L123.202 525.635C122.339 525.635 121.476 525.715 120.623 525.745C118.939 525.823 117.262 526.021 115.606 526.337C114.797 526.475 113.996 526.659 113.208 526.889C112.425 527.1 111.632 527.271 110.87 527.522L108.642 528.334L107.548 528.746L106.545 529.248L104.538 530.251C103.873 530.592 103.227 530.967 102.601 531.375C101.979 531.756 101.347 532.128 100.744 532.519L99.0385 533.803C94.9968 536.88 91.5892 540.71 89.0036 545.083C87.0293 548.361 85.5737 551.926 84.6886 555.649C84.518 556.412 84.2672 557.124 84.1869 557.817C84.1066 558.509 83.9962 559.151 83.9059 559.744C83.8156 560.336 83.7253 560.898 83.6851 561.399C83.645 561.901 83.6851 562.403 83.6249 562.784C83.6249 563.597 83.6249 564.219 83.5547 564.661C83.4845 565.102 83.4845 565.303 83.4845 565.303Z" fill="#263238"/>
<path d="M98.0449 586.246C97.7378 585.778 97.4026 585.329 97.0414 584.901C96.1293 583.699 95.2915 582.442 94.5327 581.138C91.9939 576.85 90.4107 572.064 89.8911 567.107C89.3716 562.15 89.9279 557.14 91.5223 552.418C92.0033 550.987 92.5627 549.583 93.1981 548.214C93.4667 547.727 93.6982 547.22 93.8905 546.698C93.8905 546.698 93.7901 546.809 93.6396 547.05C93.4891 547.291 93.2683 547.642 93.0175 548.123C92.3021 549.467 91.6883 550.863 91.1811 552.298C89.4615 557.051 88.839 562.131 89.3603 567.158C89.8817 572.186 91.5333 577.03 94.1915 581.329C94.9913 582.626 95.8834 583.863 96.8608 585.032C97.202 585.443 97.503 585.744 97.6937 585.955C97.8844 586.166 98.0249 586.256 98.0449 586.246Z" fill="#263238"/>
<path d="M100.122 589.848C100.051 589.979 100.363 590.29 100.814 590.551C101.266 590.811 101.697 590.912 101.767 590.791C101.838 590.671 101.527 590.35 101.075 590.089C100.623 589.828 100.192 589.728 100.122 589.848Z" fill="#263238"/>
<path d="M151.863 582.192C151.964 582.046 152.045 581.887 152.104 581.72C152.245 581.409 152.465 580.948 152.696 580.325C153.364 578.583 153.898 576.791 154.292 574.967C155.613 568.911 155.458 562.627 153.841 556.643C152.223 550.66 149.191 545.153 144.999 540.587C143.747 539.202 142.384 537.92 140.925 536.754C140.424 536.333 139.992 536.052 139.711 535.841C139.43 535.63 139.28 535.54 139.259 535.56C139.239 535.58 139.801 536.052 140.795 536.915C142.192 538.129 143.506 539.437 144.728 540.828C148.798 545.407 151.748 550.869 153.343 556.783C154.938 562.698 155.136 568.902 153.92 574.907C153.557 576.719 153.074 578.506 152.475 580.255C152.084 581.499 151.823 582.182 151.863 582.192Z" fill="white"/>
<path d="M128.571 533.011C130.085 533.481 131.685 533.615 133.257 533.402C132.528 533.078 131.736 532.921 130.939 532.941C130.154 532.792 129.345 532.816 128.571 533.011Z" fill="white"/>
</svg>
