<svg width="339" height="404" viewBox="0 0 339 404" fill="none" xmlns="http://www.w3.org/2000/svg">
<path d="M335.818 101.823H78.7529V294.985H335.818V101.823Z" fill="white"/>
<path d="M335.818 294.985C335.818 294.985 335.818 294.675 335.818 294.081C335.818 293.487 335.818 292.601 335.818 291.439C335.818 289.115 335.818 285.673 335.775 281.171C335.775 272.186 335.723 258.984 335.68 242.133C335.637 208.482 335.568 160.234 335.491 101.848L335.861 102.218L78.822 102.296L79.2696 101.848C79.2696 171.302 79.2696 237.064 79.2696 295.011L78.8651 294.606L264.402 294.804L317.099 294.916L331.085 294.968H334.691H335.611H334.708H331.153L317.245 295.019L264.643 295.131L78.8393 295.329H78.3487V294.924C78.3487 236.978 78.3487 171.216 78.3057 101.762V101.315H78.779L335.818 101.401H336.197V101.762C336.119 160.286 336.059 208.602 336.007 242.305C335.964 259.122 335.939 272.29 335.913 281.258C335.913 285.724 335.913 289.15 335.913 291.456C335.913 292.601 335.913 293.47 335.913 294.038C335.913 294.606 335.818 294.985 335.818 294.985Z" fill="#263238"/>
<path d="M334.528 125.482C334.313 125.509 334.098 125.524 333.882 125.525H331.971L324.639 125.602C318.279 125.654 309.061 125.68 297.683 125.671C274.911 125.671 243.463 125.507 208.728 125.223L119.772 124.509L92.8079 124.294L85.4838 124.208L83.5732 124.156C83.3588 124.181 83.1422 124.181 82.9277 124.156C83.1405 124.117 83.3571 124.103 83.5732 124.113H85.4838L92.8079 124.036C99.1766 123.984 108.385 123.958 119.772 123.958C142.536 123.958 173.992 124.13 208.736 124.414L297.683 125.129L324.647 125.335L331.971 125.43H333.882C334.098 125.424 334.315 125.442 334.528 125.482Z" fill="#263238"/>
<path d="M95.5443 111.599C95.546 112.199 95.3695 112.786 95.0373 113.286C94.7051 113.785 94.232 114.175 93.6781 114.405C93.1242 114.635 92.5144 114.696 91.9259 114.579C91.3374 114.463 90.7969 114.174 90.3727 113.75C89.9485 113.326 89.6598 112.785 89.5431 112.197C89.4265 111.608 89.4872 110.998 89.7176 110.445C89.948 109.891 90.3376 109.418 90.8371 109.085C91.3366 108.753 91.9235 108.577 92.5234 108.578C93.3239 108.581 94.0909 108.9 94.657 109.466C95.223 110.032 95.542 110.799 95.5443 111.599Z" fill="#263238"/>
<path d="M107.654 111.599C107.655 112.199 107.479 112.785 107.147 113.285C106.815 113.784 106.343 114.174 105.789 114.404C105.236 114.635 104.627 114.696 104.038 114.58C103.45 114.464 102.91 114.176 102.485 113.753C102.061 113.33 101.771 112.79 101.654 112.202C101.536 111.614 101.595 111.005 101.825 110.45C102.054 109.896 102.442 109.423 102.94 109.09C103.439 108.756 104.025 108.578 104.624 108.578C105.426 108.578 106.195 108.896 106.763 109.463C107.331 110.029 107.651 110.797 107.654 111.599Z" fill="#263238"/>
<path d="M116.734 114.663C118.407 114.663 119.763 113.307 119.763 111.634C119.763 109.961 118.407 108.604 116.734 108.604C115.06 108.604 113.704 109.961 113.704 111.634C113.704 113.307 115.06 114.663 116.734 114.663Z" fill="#263238"/>
<path d="M176.384 237.606H123.558V277.152H176.384V237.606Z" fill="#EBEBEB"/>
<path d="M234.401 237.606H181.575V277.152H234.401V237.606Z" fill="#EBEBEB"/>
<path d="M302.012 237.606H249.186V277.152H302.012V237.606Z" fill="#EBEBEB"/>
<path d="M216.227 219.702C191.362 203.177 194.26 168.72 200.685 154.005L220.07 150.626C213.529 158.689 212.84 187.924 221.089 194.235C229.337 200.546 244.678 200.468 250.747 192.037C255.518 185.418 256.184 170.086 264.244 168.853C260.866 151.736 272.991 133.048 289.996 129.166C290.919 124.337 292.923 119.78 295.858 115.837C298.793 111.894 302.583 108.666 306.943 106.395C311.303 104.125 316.121 102.871 321.034 102.728C325.948 102.585 330.83 103.556 335.315 105.568L334.943 161.045C334.943 161.045 340.226 187.367 323.799 193.508C318.187 195.605 312.623 194.384 307.891 192.124C307.529 192.966 307.01 193.731 306.362 194.379C303.813 196.873 299.833 197.524 296.327 196.776C295.875 196.679 295.455 196.561 294.994 196.41C291.301 207.76 280.712 219.961 270.911 225.063C256.733 232.49 229.603 228.586 216.227 219.702Z" fill="#F5F5F5"/>
<path d="M267.519 174.72C267.519 174.72 267.495 174.626 267.41 174.446L267.043 173.68C266.873 173.341 266.671 172.921 266.471 172.414C266.27 171.906 266.002 171.328 265.79 170.654C264.446 166.857 263.858 162.835 264.058 158.813C264.182 156.056 264.69 153.329 265.567 150.711C266.559 147.688 268.059 144.856 270.004 142.337C274.486 136.524 280.904 132.509 288.093 131.021C289.123 130.799 290.168 130.686 291.137 130.568L291.328 130.551L291.336 130.366C291.667 126.135 292.885 122.022 294.91 118.293C296.936 114.564 299.725 111.304 303.094 108.724C304.268 107.865 305.491 107.075 306.757 106.358C309.022 105.051 311.439 104.03 313.954 103.317C317.584 102.259 321.404 102.026 325.136 102.636C325.801 102.728 326.37 102.864 326.871 102.979C327.295 103.068 327.713 103.178 328.126 103.309L328.898 103.524C328.983 103.557 329.073 103.577 329.164 103.581C329.164 103.581 329.082 103.533 328.912 103.483L328.155 103.226C327.746 103.076 327.328 102.953 326.903 102.858C326.403 102.723 325.831 102.575 325.145 102.451C321.382 101.772 317.514 101.959 313.834 102.996C311.286 103.695 308.838 104.711 306.545 106.023C305.258 106.737 304.017 107.53 302.828 108.397C301.574 109.34 300.397 110.379 299.306 111.507C294.382 116.594 291.385 123.238 290.828 130.296L291.032 130.086C286.83 130.502 282.759 131.779 279.073 133.838C275.388 135.898 272.166 138.695 269.61 142.055C267.647 144.611 266.135 147.485 265.142 150.551C264.265 153.214 263.767 155.988 263.662 158.79C263.484 162.845 264.124 166.895 265.544 170.698C265.754 171.296 265.995 171.882 266.267 172.454C266.446 172.884 266.649 173.304 266.875 173.711C267.05 174.024 267.183 174.272 267.282 174.461C267.354 174.554 267.433 174.64 267.519 174.72Z" fill="#263238"/>
<path d="M257.444 179.54C257.53 179.531 257.452 178.765 257.665 177.572C257.794 176.879 257.999 176.203 258.275 175.554C258.622 174.763 259.063 174.017 259.586 173.33C260.134 172.659 260.758 172.054 261.447 171.53C262.014 171.109 262.626 170.753 263.272 170.467C264.386 169.985 265.145 169.883 265.131 169.805C265.117 169.727 264.936 169.78 264.586 169.814C264.096 169.877 263.614 169.999 263.153 170.178C262.461 170.428 261.805 170.771 261.204 171.196C259.716 172.246 258.562 173.703 257.881 175.392C257.606 176.077 257.424 176.797 257.34 177.531C257.272 178.021 257.267 178.519 257.327 179.011C257.379 179.362 257.421 179.546 257.444 179.54Z" fill="#263238"/>
<path d="M266.2 200.396C266.2 200.396 266.241 199.851 266.427 198.892C266.692 197.527 267.226 196.229 267.999 195.073C269.148 193.329 270.828 192 272.79 191.284C275.237 190.398 277.929 190.48 280.317 191.514L280.65 191.661L280.628 191.308C280.585 190.133 280.676 188.956 280.897 187.801C281.469 184.827 282.866 182.074 284.93 179.858C286.644 178.073 288.75 176.711 291.081 175.881C292.654 175.32 294.301 174.999 295.969 174.926C297.153 174.884 297.812 174.953 297.807 174.91C297.654 174.863 297.494 174.837 297.334 174.831C296.879 174.775 296.421 174.749 295.962 174.752C293.849 174.763 291.758 175.195 289.814 176.023C287.869 176.851 286.109 178.059 284.637 179.575C283.147 181.137 281.985 182.982 281.221 185.001C280.457 187.019 280.105 189.171 280.187 191.328L280.503 191.115C278.007 190.027 275.186 189.952 272.635 190.903C270.608 191.667 268.885 193.072 267.729 194.904C266.962 196.101 266.455 197.446 266.241 198.852C266.184 199.23 266.157 199.611 266.158 199.992C266.153 200.128 266.167 200.264 266.2 200.396Z" fill="#263238"/>
<path d="M203.663 206.712C203.759 206.925 203.873 207.128 204.003 207.322C204.246 207.706 204.592 208.289 205.079 209.005C206.485 211.012 208.073 212.885 209.823 214.6C212.428 217.124 215.318 219.337 218.434 221.194C220.274 222.297 222.176 223.291 224.131 224.172C226.226 225.13 228.373 225.968 230.563 226.685C238.248 229.239 246.314 230.459 254.411 230.293C256.861 230.245 259.301 229.979 261.704 229.496C262.546 229.304 263.202 229.141 263.636 228.997C263.862 228.94 264.081 228.862 264.293 228.765C264.061 228.797 263.832 228.845 263.608 228.91C263.167 229.03 262.514 229.155 261.665 229.324C259.267 229.739 256.839 229.958 254.405 229.98C246.359 230.053 238.357 228.798 230.719 226.267C228.545 225.559 226.412 224.729 224.332 223.781C222.385 222.914 220.491 221.935 218.659 220.847C215.548 219.018 212.653 216.846 210.028 214.371C208.286 212.691 206.687 210.869 205.246 208.924C204.735 208.233 204.38 207.665 204.126 207.265C203.987 207.069 203.832 206.884 203.663 206.712Z" fill="#263238"/>
<path d="M216.738 186.786C216.798 187.175 216.911 187.554 217.073 187.912C217.424 188.9 217.866 189.852 218.393 190.758C220.121 193.788 222.656 196.278 225.716 197.952C228.776 199.625 232.241 200.415 235.724 200.235C236.767 200.19 237.804 200.048 238.821 199.813C239.202 199.742 239.572 199.625 239.925 199.464C238.531 199.692 237.126 199.841 235.716 199.91C232.305 200.002 228.93 199.189 225.936 197.552C222.941 195.915 220.434 193.513 218.67 190.592C217.945 189.366 217.3 188.095 216.738 186.786Z" fill="#263238"/>
<path d="M212.867 147.88C214.65 151.491 215.699 155.42 215.954 159.44C215.986 160.011 215.837 160.579 215.529 161.061C215.22 161.544 214.768 161.917 214.236 162.128C213.704 162.34 213.118 162.378 212.563 162.238C212.008 162.098 211.511 161.787 211.142 161.349L211.083 161.314C211.679 166.203 211.951 171.125 211.897 176.05C211.895 176.743 211.68 177.418 211.28 177.983C210.879 178.548 210.314 178.976 209.661 179.207C209.008 179.438 208.3 179.462 207.633 179.275C206.966 179.087 206.374 178.699 205.937 178.161C198.024 168.532 193.872 156.359 194.253 143.901L212.867 147.88Z" fill="#029491"/>
<g opacity="0.3">
<path d="M210.706 152.36C211.045 152.959 211.26 153.619 211.34 154.302C211.376 154.643 211.313 154.987 211.157 155.293C211.002 155.598 210.761 155.852 210.465 156.024C209.531 156.473 208.344 155.723 207.426 156.231C206.507 156.738 206.573 158.136 206.815 159.198L207.602 162.559C207.796 163.382 207.917 164.413 207.216 164.908C206.514 165.404 205.399 164.906 204.709 164.28C203.109 162.803 201.891 160.96 201.16 158.909C200.429 156.858 200.206 154.66 200.511 152.504L210.706 152.36Z" fill="black"/>
</g>
<path d="M211.541 191.315C212.204 191.739 212.675 192.406 212.851 193.173C213.027 193.941 212.895 194.747 212.483 195.418C212.072 196.088 211.413 196.571 210.649 196.761C209.885 196.951 209.077 196.833 208.398 196.434C207.72 196.034 207.226 195.384 207.022 194.623C206.819 193.863 206.922 193.053 207.309 192.367C207.697 191.682 208.338 191.176 209.095 190.959C209.851 190.742 210.663 190.83 211.355 191.206" fill="#029491"/>
<path d="M202.436 2.26426C206.924 2.09208 215.6 13.3708 223.982 32.4379C228.939 43.6795 232.067 55.6412 233.247 67.8703L236.394 151.187L214.446 152.016L201.711 152.502L179.763 153.331L176.909 77.7198C176.625 70.3231 177.05 62.916 178.179 55.6004C179.277 48.269 180.964 41.0378 183.223 33.9772C189.682 14.2573 197.953 2.42902 202.436 2.26426Z" fill="#F5F5F5"/>
<path d="M177.81 101.089L177.604 101.268C171.661 106.421 166.952 112.844 163.825 120.062C160.698 127.279 159.232 135.108 159.537 142.968L159.916 152.952L179.219 138.425L177.81 101.089Z" fill="#029491"/>
<path d="M177.809 101.089L177.815 101.282L177.828 101.82L177.911 103.866L178.136 111.602L179.072 138.418L179.134 138.315L161.57 151.569L159.828 152.83L160.05 152.961L159.82 147.081C159.761 145.147 159.646 143.241 159.655 141.378C159.627 137.794 159.962 134.216 160.655 130.699C161.275 127.52 162.2 124.408 163.415 121.406C163.946 119.981 164.615 118.677 165.201 117.394C165.787 116.111 166.466 114.943 167.166 113.857C169.252 110.372 171.738 107.144 174.575 104.238C175.551 103.175 176.41 102.462 176.938 101.924L177.776 101.129L177.547 101.314L176.915 101.81C176.362 102.324 175.488 103.028 174.497 104.082C171.614 106.973 169.09 110.202 166.98 113.698C166.273 114.779 165.634 115.981 164.992 117.241C164.349 118.5 163.725 119.831 163.182 121.259C161.951 124.274 161.011 127.4 160.377 130.595C159.674 134.13 159.331 137.727 159.353 141.331C159.343 143.213 159.455 145.107 159.522 147.044L159.758 152.948L159.769 153.234L160.001 153.061L161.743 151.801L179.333 138.552L179.368 138.493L179.399 138.441L178.293 111.505L177.968 103.82L177.886 101.773C177.874 101.557 177.874 101.387 177.859 101.258L177.809 101.089Z" fill="#263238"/>
<path d="M234.443 98.957C234.443 98.957 234.555 99.0226 234.673 99.0925C240.899 103.72 246.006 109.686 249.618 116.551C253.23 123.416 255.253 131.005 255.54 138.756L255.916 148.609L235.838 135.775L234.443 98.957Z" fill="#029491"/>
<path d="M234.443 98.9568L234.44 99.1148L234.458 99.6253L234.504 101.65L234.759 109.233L235.682 135.802L235.688 135.876L235.74 135.907C241.374 139.517 247.551 143.478 254.028 147.626C254.65 147.993 255.247 148.404 255.805 148.763L256.049 148.907L256.038 148.621L255.822 142.819C255.738 140.911 255.705 139.034 255.555 137.187C255.312 133.639 254.705 130.124 253.745 126.699C252.888 123.609 251.732 120.609 250.294 117.741C249.663 116.371 248.897 115.129 248.217 113.91C247.537 112.69 246.776 111.592 245.984 110.596C243.664 107.316 240.958 104.326 237.927 101.69C236.87 100.737 235.965 100.104 235.38 99.6388C235.09 99.4182 234.87 99.2487 234.691 99.1128C234.511 98.977 234.446 98.9686 234.446 98.9686C234.587 99.0516 234.819 99.2683 235.322 99.685C235.826 100.102 236.795 100.813 237.836 101.776C240.846 104.431 243.535 107.428 245.85 110.706C246.616 111.727 247.289 112.873 248.067 114.011C248.845 115.149 249.487 116.467 250.115 117.826C251.534 120.687 252.675 123.678 253.521 126.757C254.466 130.165 255.063 133.661 255.304 137.189C255.444 139.02 255.472 140.904 255.556 142.812L255.773 148.614L256.002 148.48C255.431 148.143 254.83 147.739 254.232 147.347C247.751 143.207 241.562 139.249 235.924 135.645L235.99 135.754L234.916 109.306L234.59 101.691L234.507 99.6442L234.478 99.1174L234.443 98.9568Z" fill="#263238"/>
<path d="M202.436 2.26534C205.899 1.99928 211.889 8.8369 218.29 20.7223L186.782 24.0582C192.243 11.5226 197.995 2.59509 202.436 2.26534Z" fill="#029491"/>
<path d="M179.842 139.74C179.852 139.826 192.406 139.494 207.884 138.997C223.362 138.5 235.921 138.041 235.912 137.955C235.902 137.87 223.398 138.202 207.877 138.703C192.356 139.205 179.84 139.659 179.842 139.74Z" fill="#263238"/>
<path d="M180.197 142.258C180.162 142.317 192.753 142.007 208.231 141.51C223.709 141.013 236.268 140.554 236.259 140.468C236.249 140.383 223.71 140.724 208.224 141.216C192.739 141.709 180.187 142.172 180.197 142.258Z" fill="#263238"/>
<path d="M180.244 144.923C180.253 145.008 192.807 144.676 208.285 144.179C223.764 143.682 236.323 143.223 236.313 143.137C236.304 143.052 223.764 143.393 208.279 143.885C192.793 144.378 180.242 144.841 180.244 144.923Z" fill="#263238"/>
<path d="M180.298 147.593C180.308 147.678 192.866 147.339 208.34 146.849C223.814 146.36 236.387 145.859 236.35 145.837C236.313 145.815 223.802 146.093 208.316 146.585C192.83 147.078 180.301 147.504 180.298 147.593Z" fill="#263238"/>
<path d="M180.335 150.243C180.3 150.302 192.891 149.992 208.377 149.499C223.863 149.007 236.407 148.539 236.405 148.457C236.403 148.376 223.856 148.713 208.37 149.205C192.885 149.698 180.37 150.183 180.335 150.243Z" fill="#263238"/>
<path d="M206.023 100.088C206.023 100.088 205.958 100.199 205.973 100.478C205.989 100.757 205.956 101.117 205.945 101.61C205.938 102.605 205.976 104.016 206.032 105.768C206.133 109.274 206.335 114.118 206.59 119.464C206.846 124.809 207.102 129.646 207.304 133.151L207.565 137.301L207.653 138.423C207.651 138.554 207.668 138.685 207.703 138.812C207.715 138.68 207.716 138.547 207.708 138.415L207.681 137.29L207.513 133.135L206.868 119.468L206.224 105.781L206.03 101.67C206.017 101.183 205.986 100.795 205.996 100.541L206.023 100.088Z" fill="#263238"/>
<path d="M177.81 101.089C177.819 101.175 190.394 100.774 205.889 100.198C221.384 99.621 233.963 99.0936 233.961 99.0125C233.959 98.9313 221.385 99.3317 205.882 99.904C190.379 100.476 177.808 101.008 177.81 101.089Z" fill="#263238"/>
<path d="M202.516 127.731C202.419 127.625 202.293 127.551 202.153 127.517C201.783 127.367 201.372 127.351 200.991 127.471C200.7 127.551 200.434 127.706 200.221 127.921C200.009 128.136 199.857 128.403 199.78 128.696C199.667 129.06 199.672 129.451 199.793 129.813C199.915 130.175 200.147 130.49 200.456 130.713C200.766 130.936 201.138 131.057 201.519 131.058C201.901 131.059 202.273 130.94 202.584 130.718C202.838 130.554 203.045 130.325 203.183 130.056C203.32 129.786 203.385 129.485 203.369 129.183C203.367 128.794 203.239 128.417 203.003 128.108C202.825 127.903 202.675 127.835 202.666 127.849C202.658 127.864 202.771 127.961 202.91 128.183C203.107 128.485 203.207 128.841 203.198 129.202C203.195 129.463 203.123 129.719 202.991 129.944C202.858 130.169 202.669 130.355 202.442 130.484C202.176 130.66 201.864 130.75 201.545 130.743C201.227 130.736 200.919 130.632 200.661 130.445C200.403 130.259 200.209 129.998 200.103 129.698C199.997 129.398 199.985 129.073 200.068 128.766C200.127 128.513 200.25 128.28 200.425 128.089C200.601 127.899 200.823 127.757 201.069 127.677C201.401 127.553 201.763 127.529 202.108 127.61C202.377 127.679 202.503 127.753 202.516 127.731Z" fill="#263238"/>
<path d="M201.61 111.642C201.61 111.642 201.514 111.516 201.246 111.428C200.876 111.279 200.465 111.263 200.084 111.383C199.793 111.462 199.527 111.617 199.315 111.832C199.102 112.047 198.95 112.314 198.873 112.607C198.761 112.972 198.765 113.362 198.887 113.724C199.008 114.086 199.24 114.401 199.549 114.624C199.859 114.848 200.231 114.968 200.612 114.969C200.994 114.97 201.366 114.851 201.677 114.629C201.931 114.465 202.138 114.237 202.276 113.967C202.414 113.698 202.478 113.396 202.462 113.094C202.455 112.708 202.326 112.334 202.092 112.027C202.005 111.912 201.891 111.82 201.76 111.761C201.76 111.761 201.859 111.88 201.998 112.101C202.196 112.404 202.296 112.759 202.287 113.12C202.284 113.38 202.214 113.635 202.082 113.859C201.95 114.083 201.761 114.268 201.535 114.396C201.27 114.571 200.958 114.662 200.64 114.656C200.322 114.65 200.013 114.547 199.755 114.361C199.497 114.175 199.302 113.915 199.195 113.616C199.088 113.316 199.075 112.991 199.157 112.684C199.216 112.431 199.34 112.197 199.516 112.005C199.692 111.813 199.915 111.669 200.163 111.589C200.494 111.469 200.854 111.448 201.197 111.529C201.47 111.59 201.596 111.665 201.61 111.642Z" fill="#263238"/>
<path d="M209.349 86.2431C209.248 86.1426 209.123 86.0691 208.986 86.0289C208.614 85.8861 208.206 85.8701 207.824 85.9833C207.522 86.0627 207.248 86.2227 207.03 86.4462C206.812 86.6697 206.659 86.9482 206.587 87.252C206.476 87.6169 206.481 88.0075 206.604 88.3689C206.726 88.7303 206.958 89.0443 207.268 89.2667C207.578 89.4891 207.95 89.6087 208.332 89.6088C208.713 89.6089 209.085 89.4894 209.395 89.2671C209.649 89.1028 209.856 88.8744 209.994 88.6048C210.132 88.3353 210.196 88.0342 210.18 87.7318C210.177 87.3451 210.047 86.9702 209.81 86.6646C209.629 86.4475 209.486 86.3837 209.478 86.3985C209.552 86.5143 209.633 86.6256 209.721 86.7317C209.912 87.0369 210.012 87.3905 210.009 87.7509C210.004 88.0117 209.932 88.2668 209.8 88.4915C209.667 88.7162 209.479 88.9029 209.253 89.0335C208.98 89.1881 208.67 89.2652 208.357 89.2565C208.043 89.2477 207.738 89.1535 207.474 88.9839C207.226 88.7879 207.04 88.5254 206.936 88.2271C206.832 87.9289 206.816 87.6072 206.888 87.2999C206.947 87.0473 207.07 86.8143 207.245 86.6235C207.421 86.4328 207.643 86.2908 207.889 86.2116C208.221 86.0869 208.583 86.0635 208.928 86.1445C209.21 86.191 209.336 86.2653 209.349 86.2431Z" fill="#263238"/>
<path d="M212.752 74.9114C212.674 74.9253 212.509 80.5429 212.356 87.446C212.203 94.3491 212.216 99.9712 212.302 99.9617C212.387 99.9522 212.544 94.3302 212.697 87.4271C212.85 80.524 212.855 74.9224 212.752 74.9114Z" fill="#263238"/>
<g opacity="0.3">
<path d="M235.792 134.818C235.792 134.818 234.32 110.673 234.443 98.9568C236.987 104.522 239.846 110.893 240.579 116.97C241.266 123.308 239.559 129.674 235.792 134.818Z" fill="black"/>
</g>
<path d="M200.882 76.3885C191.793 74.0974 186.282 64.872 188.573 55.7831C190.864 46.6941 200.09 41.1833 209.179 43.4744C218.268 45.7655 223.778 54.9909 221.487 64.0798C219.196 73.1688 209.971 78.6796 200.882 76.3885Z" fill="white"/>
<path d="M197.26 75.0409C197.187 74.985 197.107 74.9381 197.023 74.9011C196.845 74.7962 196.615 74.6607 196.326 74.4903C195.945 74.2753 195.581 74.0308 195.238 73.7592C194.75 73.419 194.286 73.0453 193.85 72.6409C192.633 71.5564 191.584 70.2983 190.736 68.9071C189.606 67.0687 188.837 65.0318 188.469 62.9055C187.987 60.1408 188.206 57.2992 189.108 54.6415C190.009 51.9838 191.564 49.5951 193.629 47.6947C194.805 46.5882 196.146 45.6697 197.602 44.9715C198.35 44.6066 199.12 44.29 199.909 44.0236C200.717 43.7916 201.539 43.6087 202.37 43.4761C205.892 42.9078 209.504 43.4829 212.676 45.117C215.848 46.7512 218.413 49.3586 219.995 52.5568C220.371 53.3013 220.699 54.0688 220.978 54.8547C221.223 55.6509 221.412 56.4632 221.543 57.2858C221.822 58.8785 221.854 60.5047 221.638 62.1072C221.258 65.07 220.099 67.8789 218.278 70.2471C216.815 72.1303 214.97 73.6825 212.864 74.8017C210.758 75.9209 208.438 76.5817 206.059 76.7407C204.434 76.8597 202.8 76.7351 201.212 76.3711C200.629 76.2493 200.055 76.0911 199.493 75.8974C199.073 75.7755 198.663 75.6208 198.267 75.4346C197.963 75.3056 197.716 75.1997 197.521 75.1245C197.439 75.0834 197.353 75.0528 197.265 75.0335C197.34 75.0866 197.419 75.1334 197.502 75.1734C197.68 75.2783 197.931 75.3767 198.226 75.5205C198.617 75.724 199.025 75.8942 199.445 76.0291C200 76.236 200.568 76.4042 201.146 76.5325C202.745 76.9523 204.4 77.1187 206.051 77.0257C208.477 76.8921 210.847 76.2423 213.002 75.1199C215.158 73.9974 217.049 72.428 218.549 70.5166C220.438 68.0946 221.644 65.2114 222.043 62.1661C222.27 60.5236 222.242 58.856 221.96 57.222C221.708 55.5083 221.179 53.8469 220.394 52.3028C219.605 50.6946 218.563 49.2236 217.308 47.9459C216.009 46.6353 214.518 45.5305 212.885 44.6696C209.631 43.0049 205.931 42.4195 202.322 42.9982C201.46 43.1318 200.61 43.3284 199.777 43.5863C198.97 43.8616 198.181 44.1872 197.414 44.5611C195.926 45.2827 194.557 46.2276 193.355 47.3632C191.107 49.4544 189.46 52.1085 188.584 55.0506C187.897 57.3832 187.716 59.8353 188.052 62.2435C188.388 64.6517 189.233 66.9607 190.531 69.0165C191.403 70.4218 192.484 71.6856 193.737 72.7642C194.181 73.1708 194.659 73.5394 195.165 73.8661C195.516 74.1317 195.888 74.3678 196.278 74.5718C196.567 74.7422 196.797 74.8777 196.975 74.9826C197.067 75.014 197.163 75.0336 197.26 75.0409Z" fill="#263238"/>
<path d="M202.436 2.26445C202.37 2.26523 202.304 2.26967 202.238 2.27778C202.041 2.287 201.845 2.32279 201.656 2.38417C200.912 2.61954 200.217 2.98857 199.606 3.47319C197.303 5.4094 195.339 7.71588 193.795 10.2978C191.245 14.3347 189.04 18.5795 187.204 22.9869C184.714 28.8388 182.646 34.8614 181.016 41.0087C180.126 44.44 179.321 48.065 178.602 51.8836C177.861 55.8664 177.324 59.8841 176.991 63.9214C176.646 68.2595 176.541 72.6134 176.676 76.9631L177.184 90.8295L179.53 153.303L179.537 153.528L179.762 153.52C188.848 153.172 198.372 152.811 208.073 152.456C217.773 152.1 227.298 151.72 236.392 151.376L236.612 151.376L236.604 151.152L234.253 88.6541L233.714 74.7895L233.444 68.1967C233.313 66.0117 232.994 63.8754 232.722 61.7771C231.493 54.1086 229.543 46.5733 226.897 39.2716C224.649 33.3169 222.02 27.5127 219.027 21.895C216.836 17.6565 214.327 13.5895 211.523 9.7289C209.824 7.25693 207.735 5.07729 205.337 3.2751C204.698 2.82807 203.981 2.5038 203.223 2.31884C203.029 2.27338 202.829 2.2531 202.629 2.25851C202.563 2.2521 202.495 2.25263 202.429 2.26008C202.692 2.26534 202.953 2.29894 203.209 2.36028C203.955 2.56086 204.658 2.8944 205.286 3.34487C207.672 5.17062 209.75 7.36704 211.441 9.85056C214.215 13.7209 216.697 17.7921 218.868 22.0306C221.815 27.6467 224.404 33.4439 226.619 39.3874C229.236 46.6758 231.159 54.195 232.363 61.8449C232.675 63.9074 232.968 66.038 233.09 68.1876L233.334 74.8057L233.854 88.669L236.179 151.161L236.396 150.929L208.081 152.001L179.77 153.065L180.002 153.282L177.618 90.8054L177.098 76.9421C176.954 72.6064 177.048 68.266 177.379 63.9405C177.702 59.7653 178.272 55.7652 178.952 51.9503C179.633 48.1354 180.416 44.5012 181.305 41.0787C182.911 34.9422 184.954 28.9282 187.417 23.0826C189.222 18.676 191.392 14.4278 193.904 10.3826C195.429 7.80501 197.365 5.49399 199.636 3.54085C200.236 3.05291 200.916 2.67303 201.646 2.41819C201.905 2.3476 202.169 2.29621 202.436 2.26445Z" fill="#263238"/>
<path d="M282.02 224.688H132.553C127.867 224.688 123.372 222.826 120.059 219.513C116.745 216.199 114.884 211.705 114.884 207.019C114.884 202.333 116.745 197.839 120.059 194.525C123.372 191.211 127.867 189.35 132.553 189.35H282.02C286.706 189.35 291.201 191.211 294.514 194.525C297.828 197.839 299.689 202.333 299.689 207.019C299.689 211.705 297.828 216.199 294.514 219.513C291.201 222.826 286.706 224.688 282.02 224.688Z" fill="white"/>
<path d="M282.02 224.688L283.07 224.61C283.503 224.602 283.935 224.559 284.361 224.481C284.955 224.407 285.545 224.295 286.125 224.145L287.175 223.87C287.537 223.75 287.907 223.603 288.303 223.457L288.905 223.233L289.516 222.932C289.952 222.74 290.375 222.519 290.781 222.269C292.769 221.125 294.509 219.598 295.902 217.777C296.318 217.257 296.695 216.708 297.029 216.133C297.398 215.54 297.723 214.922 298.002 214.283C298.304 213.615 298.568 212.931 298.794 212.234C298.888 211.873 298.983 211.511 299.078 211.133L299.224 210.573L299.31 209.997L299.491 208.817L299.543 207.613V206.993V206.373C299.543 205.952 299.543 205.513 299.465 205.108C299.252 203.354 298.791 201.638 298.097 200.013C296.501 196.415 293.759 193.446 290.299 191.57C288.425 190.568 286.383 189.918 284.275 189.651C282.106 189.41 279.825 189.53 277.51 189.505L132.587 189.574C130.839 189.597 129.102 189.855 127.423 190.339C125.773 190.873 124.204 191.629 122.758 192.586C121.351 193.557 120.083 194.715 118.989 196.028C117.925 197.365 117.056 198.846 116.407 200.426C115.78 202.004 115.375 203.66 115.202 205.349C115.064 207.026 115.15 208.713 115.46 210.367C116.108 213.647 117.689 216.671 120.013 219.076C122.29 221.446 125.195 223.121 128.387 223.904C129.169 224.099 129.962 224.243 130.762 224.335C131.571 224.335 132.363 224.447 133.181 224.429H156.848L222.007 224.481L265.9 224.55L277.846 224.593H280.953H282.011H280.953H277.846H265.9L222.007 224.67L156.848 224.714H133.181C132.372 224.714 131.537 224.653 130.719 224.619C129.899 224.524 129.085 224.378 128.284 224.18C125.004 223.383 122.019 221.67 119.677 219.24C118.5 218.012 117.498 216.627 116.699 215.126C115.91 213.605 115.331 211.983 114.978 210.306C114.663 208.604 114.576 206.868 114.72 205.143C115.047 201.643 116.397 198.318 118.601 195.581C120.837 192.804 123.852 190.76 127.259 189.711C128.974 189.21 130.749 188.944 132.535 188.919L277.459 188.98C279.774 188.98 282.037 188.894 284.258 189.152C286.413 189.417 288.5 190.082 290.411 191.114C293.922 193.031 296.697 196.057 298.303 199.72C299.003 201.368 299.464 203.107 299.672 204.884C299.715 205.315 299.715 205.745 299.741 206.167V206.795V207.415C299.741 207.828 299.697 208.275 299.68 208.645C299.663 209.015 299.551 209.446 299.491 209.833L299.405 210.418L299.259 210.986C299.155 211.365 299.061 211.735 298.966 212.096C298.682 212.802 298.493 213.525 298.157 214.171C297.867 214.815 297.534 215.439 297.159 216.038C296.816 216.612 296.433 217.162 296.014 217.682C294.608 219.512 292.853 221.045 290.85 222.192C290.435 222.434 290.007 222.652 289.568 222.846L288.948 223.139L288.346 223.362C287.941 223.509 287.571 223.655 287.201 223.767L286.151 224.034C285.565 224.181 284.97 224.288 284.369 224.352C283.942 224.421 283.511 224.458 283.079 224.464L282.02 224.688Z" fill="#263238"/>
<path d="M280.806 210.606C283.878 207.534 283.878 202.554 280.806 199.482C277.734 196.41 272.753 196.41 269.681 199.482C266.609 202.553 266.609 207.534 269.681 210.606C272.753 213.678 277.734 213.678 280.806 210.606Z" fill="white"/>
<path d="M275.238 214.343C273.596 214.344 271.991 213.859 270.625 212.948C269.26 212.037 268.195 210.741 267.566 209.225C266.937 207.709 266.772 206.04 267.092 204.43C267.411 202.819 268.202 201.34 269.363 200.18C270.523 199.019 272.003 198.228 273.613 197.909C275.223 197.589 276.892 197.754 278.408 198.383C279.925 199.012 281.22 200.076 282.131 201.442C283.042 202.808 283.527 204.413 283.526 206.055C283.523 208.252 282.65 210.359 281.096 211.913C279.542 213.466 277.435 214.34 275.238 214.343ZM275.238 198.619C273.767 198.617 272.328 199.052 271.104 199.868C269.88 200.684 268.926 201.845 268.362 203.203C267.798 204.562 267.649 206.057 267.935 207.5C268.221 208.943 268.929 210.269 269.968 211.31C271.008 212.35 272.333 213.059 273.775 213.347C275.218 213.635 276.714 213.488 278.073 212.925C279.432 212.363 280.594 211.41 281.411 210.187C282.229 208.964 282.665 207.526 282.665 206.055C282.665 204.084 281.883 202.194 280.49 200.8C279.098 199.405 277.208 198.621 275.238 198.619Z" fill="#263238"/>
<path d="M281.811 210.34L281.352 211.068L288.01 215.272L288.47 214.544L281.811 210.34Z" fill="#263238"/>
<path d="M56.3529 376.367L56.8779 401.394L23.9326 402.169C24.0445 399.191 40.9303 392.814 40.9303 392.814L39.8975 376.797L56.3529 376.367Z" fill="#455A64"/>
<g opacity="0.6">
<path d="M51.0853 391.23C51.3958 391.304 51.6671 391.492 51.8456 391.756C52.0241 392.021 52.0968 392.343 52.0493 392.658C51.9622 392.971 51.7606 393.239 51.4848 393.41C51.2089 393.58 50.8788 393.641 50.5604 393.579C50.3883 393.556 50.2231 393.497 50.076 393.405C49.9289 393.312 49.8033 393.19 49.7077 393.045C49.612 392.9 49.5486 392.736 49.5217 392.565C49.4948 392.393 49.505 392.218 49.5516 392.051C49.5982 391.883 49.6802 391.728 49.792 391.595C49.9038 391.462 50.0428 391.355 50.1996 391.28C50.3564 391.206 50.5273 391.166 50.7009 391.163C50.8745 391.16 51.0467 391.195 51.2058 391.264" fill="white"/>
</g>
<g opacity="0.6">
<path d="M56.8779 401.394L56.7144 398.872L25.1891 400.594C25.1891 400.594 23.7433 401.23 23.9326 402.203L56.8779 401.394Z" fill="white"/>
</g>
<path d="M40.3959 392.667C40.3959 392.822 41.2049 392.874 42.0139 393.347C42.8229 393.821 43.2532 394.44 43.3996 394.38C43.5459 394.32 43.2877 393.442 42.2979 392.891C41.3082 392.34 40.3529 392.53 40.3959 392.667Z" fill="#263238"/>
<path d="M36.9706 394.105C36.9706 394.251 37.6419 394.492 38.2099 395.12C38.7779 395.748 38.9501 396.428 39.0706 396.42C39.191 396.411 39.3115 395.559 38.5972 394.776C37.8829 393.993 36.9706 393.958 36.9706 394.105Z" fill="#263238"/>
<path d="M35.1119 398.055C35.2582 398.055 35.4648 397.323 35.0344 396.497C34.6041 395.671 33.8381 395.361 33.7693 395.49C33.7004 395.619 34.1824 396.05 34.5267 396.73C34.8709 397.41 34.957 398.046 35.1119 398.055Z" fill="#263238"/>
<path d="M40.6028 388.992C40.6716 389.13 41.4118 388.906 42.324 388.941C43.2363 388.975 43.9506 389.233 44.0453 389.104C44.14 388.975 43.4257 388.442 42.324 388.416C41.2224 388.39 40.5081 388.881 40.6028 388.992Z" fill="#263238"/>
<path d="M41.2744 385.283C41.8198 385.41 42.3888 385.396 42.9268 385.24C43.5194 385.126 44.0969 384.944 44.6481 384.698C44.9684 384.552 45.2788 384.385 45.5776 384.199C45.7594 384.098 45.9249 383.97 46.0681 383.82C46.1709 383.713 46.2324 383.573 46.2419 383.425C46.2513 383.277 46.2081 383.13 46.1198 383.011C46.0361 382.902 45.9276 382.815 45.8034 382.756C45.6791 382.698 45.5427 382.67 45.4054 382.675C45.1985 382.68 44.9931 382.712 44.7944 382.77C44.4428 382.859 44.1 382.98 43.7702 383.131C43.2252 383.378 42.7226 383.709 42.2813 384.113C41.5326 384.792 41.283 385.369 41.3432 385.395C41.4035 385.421 41.7735 384.965 42.5395 384.388C42.9863 384.057 43.4719 383.783 43.9854 383.57C44.2938 383.451 44.6102 383.353 44.9321 383.278C45.2764 383.183 45.569 383.174 45.6636 383.278C45.7583 383.381 45.6636 383.355 45.6636 383.458C45.5594 383.566 45.4406 383.659 45.3108 383.734C45.0323 383.912 44.745 384.075 44.4501 384.224C43.9435 384.479 43.4131 384.684 42.8666 384.835C42.3255 384.945 41.7933 385.095 41.2744 385.283Z" fill="#263238"/>
<path d="M41.4643 385.498C41.7618 385.052 41.9011 384.518 41.8602 383.983C41.8781 383.398 41.7876 382.815 41.5934 382.262C41.4761 381.935 41.3262 381.621 41.1458 381.324C41.0444 381.117 40.8929 380.938 40.7051 380.805C40.5172 380.671 40.2989 380.586 40.07 380.558C39.9259 380.565 39.7864 380.611 39.6665 380.691C39.5467 380.772 39.4511 380.883 39.3901 381.014C39.3092 381.197 39.2598 381.392 39.2438 381.591C39.1874 381.939 39.1874 382.293 39.2438 382.641C39.3539 383.225 39.6083 383.772 39.984 384.233C40.6553 385.025 41.3266 385.188 41.3438 385.137C41.361 385.085 40.8274 384.784 40.311 384.018C40.0185 383.581 39.8273 383.084 39.7516 382.563C39.7044 382.264 39.7044 381.959 39.7516 381.66C39.7516 381.333 39.9151 381.057 40.0442 381.092C40.1733 381.126 40.5004 381.324 40.6381 381.591C40.808 381.864 40.952 382.152 41.0684 382.451C41.2669 382.947 41.3888 383.469 41.4299 384.001C41.559 384.904 41.404 385.472 41.4643 385.498Z" fill="#263238"/>
<path d="M81.3201 378.45L84.4958 403.279L117.2 399.217C116.649 396.291 99.0149 392.461 99.0149 392.461L97.6895 376.462L81.3201 378.45Z" fill="#455A64"/>
<g opacity="0.6">
<path d="M88.7046 392.375C88.4068 392.493 88.1644 392.718 88.0256 393.007C87.8869 393.296 87.8619 393.626 87.9559 393.932C88.0901 394.227 88.3296 394.461 88.6273 394.588C88.9249 394.716 89.2595 394.727 89.5653 394.621C89.8817 394.497 90.139 394.257 90.2845 393.95C90.4301 393.643 90.453 393.292 90.3485 392.969C90.1762 392.685 89.9065 392.473 89.5899 392.374C89.2732 392.274 88.931 392.293 88.6272 392.426" fill="white"/>
</g>
<g opacity="0.6">
<path d="M84.4949 403.279L84.2797 400.757L115.71 397.814C115.71 397.814 117.199 398.193 117.199 399.217L84.4949 403.279Z" fill="white"/>
</g>
<path d="M99.4881 392.237C99.4881 392.392 98.7135 392.555 97.9819 393.141C97.2504 393.726 96.9148 394.406 96.7598 394.363C96.6049 394.32 96.7598 393.425 97.6205 392.736C98.4811 392.047 99.5053 392.091 99.4881 392.237Z" fill="#263238"/>
<path d="M103.077 393.149C103.137 393.296 102.475 393.64 102.01 394.346C101.545 395.051 101.468 395.74 101.313 395.757C101.158 395.774 100.943 394.896 101.537 394.036C102.131 393.175 103.06 393.029 103.077 393.149Z" fill="#263238"/>
<path d="M105.496 396.79C105.358 396.842 105.048 396.119 105.358 395.241C105.668 394.363 106.374 393.941 106.451 394.053C106.529 394.165 106.124 394.673 105.883 395.396C105.642 396.119 105.659 396.755 105.496 396.79Z" fill="#263238"/>
<path d="M98.7577 388.631C98.7061 388.777 97.9487 388.631 97.0364 388.829C96.1241 389.027 95.4701 389.354 95.3754 389.233C95.2807 389.113 95.8832 388.493 96.9418 388.304C98.0003 388.114 98.8266 388.502 98.7577 388.631Z" fill="#263238"/>
<path d="M97.5352 385.059C97.0151 385.261 96.4522 385.326 95.8999 385.249C95.2994 385.228 94.7038 385.133 94.127 384.965C93.7857 384.873 93.452 384.755 93.1287 384.612C92.9337 384.539 92.7509 384.438 92.5865 384.311C92.4703 384.219 92.3896 384.09 92.3582 383.946C92.3268 383.801 92.3467 383.65 92.4143 383.519C92.4845 383.4 92.5806 383.299 92.6954 383.223C92.8101 383.147 92.9406 383.098 93.077 383.08C93.2827 383.053 93.491 383.053 93.6967 383.08C94.0554 383.115 94.4098 383.184 94.7553 383.286C95.3334 383.449 95.8823 383.702 96.3819 384.035C97.2425 384.603 97.5438 385.137 97.4921 385.171C97.4405 385.206 97.0016 384.801 96.1667 384.354C95.3863 383.925 94.5239 383.667 93.6365 383.596C93.275 383.553 92.9824 383.596 92.9135 383.743C92.8447 383.889 92.9135 383.829 92.9738 383.915C93.0943 384.006 93.2277 384.078 93.3697 384.13C93.668 384.271 93.9757 384.392 94.2905 384.491C94.8292 384.666 95.3821 384.792 95.943 384.87C96.4777 384.893 97.01 384.956 97.5352 385.059Z" fill="#263238"/>
<path d="M97.3541 385.283C96.9948 384.883 96.7797 384.374 96.7431 383.837C96.6401 383.268 96.6401 382.685 96.7431 382.116C96.8061 381.776 96.9071 381.444 97.0443 381.126C97.1121 380.907 97.2345 380.708 97.4 380.548C97.5656 380.389 97.7689 380.274 97.991 380.214C98.1341 380.198 98.2789 380.221 98.4095 380.282C98.54 380.343 98.6513 380.438 98.7311 380.558C98.833 380.731 98.9111 380.916 98.9635 381.109C99.0646 381.446 99.1083 381.798 99.0926 382.15C99.0811 382.758 98.9089 383.352 98.5934 383.872C98.0512 384.732 97.4057 385.016 97.3799 384.965C97.3541 384.913 97.8447 384.534 98.2406 383.708C98.4639 383.232 98.5785 382.711 98.5762 382.185C98.5742 381.893 98.5278 381.602 98.4385 381.324C98.3524 380.997 98.1889 380.748 98.0598 380.799C97.9307 380.851 97.6553 381.1 97.552 381.376C97.4252 381.654 97.3216 381.942 97.2422 382.236C97.1271 382.756 97.0836 383.289 97.1131 383.82C97.1992 384.724 97.4057 385.283 97.3541 385.283Z" fill="#263238"/>
<path d="M30.8018 243.544L82.0874 245.188C82.0874 245.188 94.1794 325.899 93.8437 331.519L101.297 390.042L79.6087 390.808C79.6087 390.808 76.1662 371.814 73.8166 358.818C72.233 350.212 69.3413 337.492 68.5581 330.271C67.7749 323.05 55.0891 272.608 55.0891 272.608C55.0891 272.608 56.0272 331.132 56.0013 333.541C55.9755 335.951 58.5144 390.74 58.5144 390.74H36.9984C35.8882 380.851 33.246 341.278 32.6952 333.283C31.6624 318.842 28.392 278.047 27.9531 267.625C27.5141 257.202 30.8018 243.544 30.8018 243.544Z" fill="#263238"/>
<path d="M34.1833 243.94C34.4233 242.727 34.4233 241.478 34.1833 240.265C33.9308 241.477 33.9308 242.728 34.1833 243.94Z" fill="#455A64"/>
<path d="M32.0487 244.912C32.457 243.365 32.3202 241.724 31.6614 240.265C31.6847 241.044 31.7595 241.82 31.8852 242.589C31.8876 243.366 31.9422 244.142 32.0487 244.912Z" fill="#455A64"/>
<path d="M51.2053 241.066C51.6217 241.151 52.0008 241.365 52.2898 241.677C52.434 241.841 52.5403 242.034 52.6013 242.244C52.6623 242.454 52.6764 242.674 52.6426 242.89C52.5696 243.138 52.4298 243.36 52.2385 243.533C52.0471 243.707 51.8117 243.824 51.5582 243.872C51.3046 243.92 51.0427 243.897 50.8013 243.806C50.5599 243.715 50.3483 243.559 50.1898 243.355C50.0811 243.166 50.0141 242.956 49.9933 242.74C49.9725 242.523 49.9984 242.304 50.0693 242.098C50.2202 241.699 50.4985 241.36 50.8611 241.134C50.8611 241.134 50.7148 241.134 50.4996 241.229C50.194 241.403 49.9571 241.676 49.8283 242.004C49.7206 242.247 49.6708 242.512 49.6827 242.778C49.6947 243.043 49.7681 243.303 49.8972 243.536C50.0868 243.809 50.3515 244.022 50.6594 244.148C50.9673 244.274 51.3051 244.308 51.632 244.246C51.9589 244.184 52.2608 244.029 52.5013 243.799C52.7417 243.569 52.9104 243.274 52.9869 242.95C53.0221 242.686 52.9954 242.417 52.9087 242.164C52.8221 241.912 52.678 241.683 52.4877 241.496C52.2447 241.241 51.9237 241.074 51.5754 241.022C51.3344 240.997 51.2053 241.048 51.2053 241.066Z" fill="#455A64"/>
<path d="M74.8483 330.133C76.7208 329.566 78.5549 328.879 80.3392 328.076C82.1728 327.391 83.9609 326.589 85.6924 325.675C83.8181 326.245 81.9813 326.932 80.1929 327.732C78.363 328.42 76.578 329.222 74.8483 330.133Z" fill="#455A64"/>
<path d="M77.6105 122.237C77.447 119.25 75.6052 117.408 73.0319 115.885C71.7346 115.132 70.2746 114.704 68.7762 114.636C67.2777 114.569 65.7852 114.864 64.4255 115.498C62.6181 116.358 61.0346 117.822 59.0551 118.08C55.7847 118.501 52.695 115.498 49.4934 116.229C48.5381 116.458 47.6917 117.011 47.0978 117.794C46.504 118.576 46.1995 119.54 46.236 120.522C46.2725 121.503 46.6478 122.442 47.2981 123.178C47.9484 123.915 48.8336 124.403 49.8032 124.56C47.6602 124.87 46.4553 127.581 47.2213 129.587C47.9872 131.592 50.2507 132.771 52.3851 132.814C54.5591 132.745 56.6726 132.081 58.4957 130.895C60.3633 129.81 62.1104 128.502 64.064 127.573C65.9818 126.537 68.2035 126.211 70.3381 126.652C73.1696 127.401 75.1749 130.094 75.9064 132.9C76.638 135.706 76.3281 138.727 75.9064 141.618C75.4847 144.51 74.9081 147.428 75.1835 150.345C75.1815 150.511 75.2177 150.675 75.2894 150.824C75.361 150.973 75.4662 151.104 75.5966 151.206C76.0269 151.447 76.5261 151.042 76.8445 150.664C80.469 146.363 83.212 141.392 84.9173 136.033C85.9071 132.934 86.4493 129.914 85.2702 126.884C84.0911 123.855 80.1064 120.972 77.5761 122.202" fill="#263238"/>
<path d="M80.3896 136.661L75.6131 166.155C74.7524 171.663 71.1377 176.991 62.4969 175.183C55.1126 173.049 55.6634 167.739 56.6273 161.189C56.6273 161.189 48.5029 159.081 49.2344 150.819C49.5787 146.825 50.9557 138.666 52.3241 131.299C53.0226 127.484 55.1318 124.072 58.2321 121.742C61.3324 119.412 65.1964 118.335 69.055 118.725L69.8554 118.803C78.3843 120.206 81.9904 128.175 80.3896 136.661Z" fill="#FFBE9D"/>
<path d="M56.6281 161.189C60.4358 161.561 64.2704 160.836 67.6787 159.098C67.6787 159.098 64.4427 165.226 56.2924 163.659L56.6281 161.189Z" fill="#EB996E"/>
<path d="M53.9426 138.52C53.9084 138.826 53.9955 139.134 54.1853 139.377C54.3752 139.62 54.6526 139.779 54.9582 139.819C55.1066 139.848 55.2592 139.846 55.4067 139.813C55.5543 139.781 55.6939 139.719 55.8169 139.632C55.94 139.544 56.044 139.432 56.1227 139.303C56.2014 139.174 56.2532 139.031 56.2749 138.881C56.3092 138.575 56.222 138.267 56.0322 138.024C55.8424 137.782 55.5649 137.623 55.2594 137.582C55.1111 137.555 54.9589 137.558 54.8118 137.59C54.6646 137.623 54.5256 137.685 54.4028 137.773C54.28 137.86 54.1761 137.971 54.097 138.1C54.018 138.228 53.9655 138.371 53.9426 138.52Z" fill="#263238"/>
<path d="M53.6844 135.525C53.8135 135.697 54.7774 135.121 56.0426 135.258C57.3077 135.396 58.1769 136.119 58.3319 135.973C58.4868 135.826 58.2802 135.62 57.9101 135.284C57.3983 134.848 56.764 134.58 56.0942 134.518C55.4349 134.445 54.7699 134.59 54.2008 134.931C53.7791 135.189 53.6241 135.448 53.6844 135.525Z" fill="#263238"/>
<path d="M65.4846 140.345C65.4504 140.651 65.5375 140.959 65.7273 141.201C65.9172 141.444 66.1946 141.603 66.5001 141.644C66.6485 141.672 66.8012 141.67 66.9487 141.638C67.0963 141.606 67.2359 141.544 67.3589 141.456C67.482 141.369 67.586 141.257 67.6647 141.128C67.7434 140.999 67.7952 140.856 67.8169 140.706C67.8512 140.4 67.764 140.092 67.5742 139.849C67.3844 139.606 67.1069 139.447 66.8014 139.406C66.6531 139.379 66.5009 139.382 66.3538 139.415C66.2066 139.448 66.0676 139.51 65.9448 139.597C65.822 139.685 65.7181 139.796 65.639 139.924C65.56 140.053 65.5075 140.196 65.4846 140.345Z" fill="#263238"/>
<path d="M65.8807 137.014C66.0184 137.177 66.9737 136.609 68.2388 136.738C69.504 136.867 70.3732 137.599 70.5281 137.461C70.6831 137.324 70.4765 137.108 70.1064 136.773C69.5946 136.336 68.9603 136.069 68.2905 136.007C67.6324 135.937 66.9692 136.079 66.3971 136.411C65.9754 136.67 65.8204 136.936 65.8807 137.014Z" fill="#263238"/>
<path d="M60.5788 145.956C59.9328 145.674 59.2529 145.477 58.5562 145.371C58.2378 145.31 57.9366 145.216 57.9022 144.983C57.9115 144.647 58.0193 144.321 58.212 144.045C58.5993 143.297 59.0038 142.505 59.4169 141.679C61.1382 138.305 62.3517 135.516 62.214 135.448C60.9629 137.367 59.8636 139.381 58.9263 141.472L57.7558 143.865C57.5182 144.235 57.4149 144.675 57.4632 145.113C57.497 145.233 57.5581 145.343 57.6417 145.436C57.7253 145.528 57.8292 145.6 57.9452 145.646C58.121 145.708 58.3027 145.751 58.4874 145.775C59.1745 145.921 59.8769 145.981 60.5788 145.956Z" fill="#263238"/>
<path d="M66.2931 132.014C66.3792 132.375 67.6615 132.341 69.1332 132.668C70.6049 132.995 71.7668 133.528 71.9905 133.236C72.0938 133.09 71.9217 132.745 71.4655 132.375C70.864 131.907 70.1648 131.581 69.4199 131.42C68.675 131.259 67.9034 131.268 67.1623 131.446C66.5599 131.601 66.2587 131.85 66.2931 132.014Z" fill="#263238"/>
<path d="M54.5193 131.901C54.7173 132.22 55.6209 132.005 56.6709 132.099C57.7209 132.194 58.5901 132.487 58.8225 132.203C58.9258 132.065 58.8225 131.764 58.4524 131.454C57.9657 131.08 57.3797 130.858 56.7675 130.815C56.1552 130.772 55.5439 130.911 55.0099 131.213C54.5882 131.471 54.4332 131.755 54.5193 131.901Z" fill="#263238"/>
<path d="M79.1074 142.703C79.2537 142.651 84.9426 141.593 84.1938 147.213C83.4451 152.833 77.9542 150.931 77.9714 150.767C77.9886 150.604 79.1074 142.703 79.1074 142.703Z" fill="#FFBE9D"/>
<path d="M79.9684 148.865C79.9684 148.865 80.0545 148.942 80.2094 149.046C80.4305 149.174 80.6917 149.214 80.9409 149.157C81.335 148.974 81.6734 148.69 81.9214 148.333C82.1694 147.976 82.3181 147.56 82.3524 147.126C82.4338 146.647 82.4044 146.155 82.2663 145.689C82.2398 145.504 82.1677 145.329 82.0565 145.178C81.9454 145.028 81.7986 144.908 81.6294 144.828C81.5218 144.782 81.4009 144.775 81.2888 144.81C81.1767 144.845 81.0807 144.918 81.0184 145.018C80.9151 145.164 80.9409 145.285 80.9065 145.285C80.8721 145.285 80.8032 145.173 80.9065 144.949C80.9549 144.815 81.0494 144.702 81.1733 144.631C81.3428 144.534 81.5432 144.506 81.7327 144.553C81.9484 144.636 82.14 144.772 82.2903 144.948C82.4405 145.124 82.5446 145.334 82.5934 145.56C82.7678 146.081 82.8121 146.636 82.7224 147.178C82.6838 147.678 82.5004 148.156 82.1947 148.553C81.8891 148.95 81.4743 149.25 81.0012 149.416C80.8463 149.436 80.6888 149.422 80.54 149.374C80.3912 149.327 80.2548 149.247 80.1405 149.14C79.9598 149.003 79.9512 148.873 79.9684 148.865Z" fill="#EB996E"/>
<path d="M52.9965 123.648C53.96 122.131 55.2886 120.879 56.8608 120.008C60.1591 117.957 64.0194 116.996 67.8942 117.262C71.7837 117.565 75.4034 119.367 77.9895 122.288C79.967 124.684 81.197 127.608 81.5268 130.697C81.8483 133.773 81.5557 136.883 80.6661 139.845C80.3907 141.18 79.7293 142.404 78.7641 143.365C78.1186 143.916 77.0428 144.226 76.4662 143.641C76.1443 143.256 75.9596 142.774 75.9412 142.272C75.2957 137.814 74.6933 133.021 76.7072 128.993C75.8167 127.446 74.6187 126.099 73.1872 125.034C72.468 124.506 71.6508 124.127 70.7833 123.918C69.9159 123.71 69.0157 123.677 68.1352 123.82C65.5533 124.337 63.7459 126.626 61.5685 128.123C59.9987 129.185 58.1991 129.857 56.3182 130.086C54.4372 130.315 52.5288 130.094 50.7502 129.44L52.9965 123.648Z" fill="#263238"/>
<path d="M59.4595 149.373C59.5247 149.907 59.6667 150.429 59.8812 150.922C59.9911 151.168 60.1512 151.389 60.3512 151.57C60.5513 151.75 60.7869 151.887 61.043 151.972C61.3242 152.031 61.6156 152.018 61.8907 151.935C62.1658 151.853 62.4158 151.703 62.618 151.499C63.0128 151.079 63.2657 150.546 63.341 149.975C63.427 149.459 63.341 148.813 62.8332 148.641C62.6235 148.594 62.406 148.594 62.1963 148.641L59.3218 149.166" fill="#EB996E"/>
<path d="M60.0632 151.774C60.5341 151.9 61.0238 151.941 61.5091 151.894C62.0095 151.812 62.4608 151.544 62.7742 151.146C62.9582 150.903 63.0887 150.624 63.1569 150.328C63.2252 150.031 63.2297 149.723 63.1701 149.424C63.1413 149.272 63.0921 149.125 63.0238 148.985C62.9464 148.848 62.9636 148.856 62.8431 148.856C62.6896 148.873 62.5373 148.899 62.3869 148.934L61.9136 149.02L60.2784 149.295C59.7798 149.414 59.2664 149.457 58.755 149.424C59.2104 149.189 59.7021 149.032 60.2095 148.96C60.6743 148.839 61.2165 148.719 61.8275 148.581L62.2923 148.478C62.4644 148.478 62.5935 148.4 62.8173 148.383C62.9559 148.372 63.0946 148.405 63.2131 148.478C63.3142 148.556 63.3966 148.656 63.4541 148.77C63.5428 148.947 63.6065 149.135 63.6435 149.33C63.7186 149.697 63.7104 150.076 63.6196 150.439C63.5287 150.803 63.3575 151.141 63.1185 151.43C62.722 151.892 62.1592 152.18 61.5521 152.23C61.1584 152.278 60.759 152.216 60.3989 152.049C60.1493 151.912 60.046 151.8 60.0632 151.774Z" fill="#263238"/>
<path d="M39.1055 137.246L37.7715 136.885L17.0042 157.067L0.152866 159.098C0.152866 159.098 0.324997 154.012 6.65071 147.522C12.3309 141.722 25.5418 134.836 30.0171 131.273C30.5949 130.785 31.2491 130.396 31.9535 130.12L39.1055 137.246Z" fill="#FFBE9D"/>
<path d="M39.1143 127.641L41.24 127.039L46.249 124.664L51.9464 126.789C51.9464 126.789 51.8173 128.734 50.3198 128.201L56.2926 130.172C56.2926 130.172 55.8021 131.592 55.5353 131.686C55.2685 131.781 59.0381 132.091 59.0381 132.091C59.0381 132.091 59.0381 134.01 55.4664 133.976C51.8948 133.941 50.5091 133.33 50.5091 133.33L47.6432 134.096L47.7551 135.817L51.6624 135.757L51.4817 137.943C49.8218 138.294 48.1439 138.552 46.4555 138.718C46.4555 138.718 40.431 138.804 38.7958 138.012C37.1606 137.22 35.0778 136.093 35.0778 136.093L31.9537 130.137L39.1143 127.641Z" fill="#FFBE9D"/>
<path d="M44.4928 128.648C44.4928 128.7 44.8284 128.537 45.3534 128.296C46.0563 127.994 46.7328 127.634 47.3759 127.22H47.1177L47.3501 127.366C48.0613 127.821 48.8632 128.114 49.6997 128.227C50.3365 128.313 50.7324 128.227 50.7324 128.227C49.6343 127.965 48.5753 127.56 47.5825 127.022L47.3673 126.884L47.2382 126.798L47.1091 126.893C46.412 127.375 45.6805 127.753 45.1985 128.055C44.7165 128.356 44.4497 128.605 44.4928 128.648Z" fill="#EB996E"/>
<path d="M46.3265 131.686C46.3265 131.686 46.7138 131.824 47.2904 131.575C47.8671 131.325 48.5125 130.714 49.3302 130.37H49.1236C49.4906 130.617 49.8762 130.836 50.2769 131.024C51.2844 131.505 52.3799 131.774 53.4957 131.816C53.9541 131.874 54.42 131.824 54.8555 131.669C53.3469 131.548 51.8662 131.194 50.4662 130.619C50.0849 130.442 49.7167 130.238 49.3646 130.008L49.2527 129.948H49.158C48.2285 130.421 47.6863 131.05 47.1786 131.308C46.6708 131.566 46.3265 131.618 46.3265 131.686Z" fill="#EB996E"/>
<path d="M40.9903 133.554C40.9903 133.623 41.4292 133.494 42.1091 133.502C42.9894 133.514 43.8486 133.773 44.5878 134.251C45.0769 134.567 45.4959 134.98 45.8185 135.465L45.8701 135.542H45.9476C46.6104 135.731 47.2986 135.815 47.9873 135.792C47.3709 135.479 46.7084 135.267 46.025 135.164L46.1541 135.25C45.8311 134.69 45.3798 134.215 44.8374 133.864C44.0284 133.333 43.0643 133.091 42.1005 133.175C41.3604 133.262 40.9645 133.511 40.9903 133.554Z" fill="#EB996E"/>
<path d="M35.078 136.076C35.1296 136.121 35.1876 136.159 35.2501 136.188L35.7923 136.497L37.875 137.625C38.3674 137.927 38.8968 138.164 39.45 138.331C40.116 138.485 40.7917 138.595 41.4725 138.658C42.9356 138.804 44.6053 138.864 46.4556 138.864L48.7019 138.632C49.533 138.562 50.3565 138.421 51.1633 138.21H51.2494V138.098C51.3699 137.349 51.499 136.532 51.6367 135.697L51.6797 135.456H51.4387L47.7208 135.611L47.9445 135.8C47.9445 135.275 47.8671 134.69 47.8327 134.079L47.6691 134.303L50.5437 133.537H50.3974C51.7927 133.961 53.2421 134.182 54.7006 134.191C55.4569 134.239 56.2162 134.201 56.9641 134.079C57.3723 134.028 57.7653 133.892 58.1169 133.678C58.4685 133.465 58.7708 133.179 59.0038 132.84C59.1335 132.613 59.21 132.36 59.2275 132.1V131.902H59.0124C58.1517 131.824 57.2309 131.747 56.3616 131.652L55.7247 131.566H55.587V131.609C55.613 131.632 55.6316 131.662 55.6408 131.696C55.6499 131.73 55.6492 131.765 55.6387 131.798C55.6387 131.876 55.4838 131.979 55.5182 131.945C55.5687 131.924 55.6153 131.895 55.6559 131.859C55.749 131.762 55.8273 131.651 55.8883 131.532C56.0873 131.136 56.2598 130.728 56.4046 130.309L56.4821 130.094L56.2669 130.025L50.2424 128.063L50.1047 128.459C50.3466 128.548 50.6064 128.578 50.8621 128.545C51.1244 128.499 51.362 128.362 51.5334 128.158C51.8211 127.783 51.9891 127.33 52.0154 126.858V126.712L51.8605 126.652L46.1544 124.552H46.0855H46.0167L41.0164 126.953L38.925 127.555L37.1005 128.201L34.2087 129.251L32.3928 129.922C32.1778 129.987 31.9702 130.073 31.7731 130.18C31.9914 130.132 32.2069 130.072 32.4186 130L34.2603 129.406L37.1779 128.433L39.0025 127.822L41.1024 127.254L46.1286 124.905H45.9823L51.6797 127.048L51.542 126.841C51.5197 127.224 51.385 127.593 51.1547 127.9C51.0306 128.023 50.8718 128.105 50.6996 128.136C50.5274 128.167 50.3499 128.144 50.1908 128.072L50.0531 128.476L56.0174 130.456L55.8796 130.172C55.7481 130.569 55.584 130.955 55.3891 131.325C55.3522 131.402 55.3059 131.474 55.2514 131.54C55.2755 131.571 55.2931 131.606 55.303 131.643C55.217 131.42 55.303 131.583 55.2428 131.54H55.1825C55.1431 131.573 55.1158 131.619 55.1051 131.669C55.0969 131.706 55.0982 131.744 55.1087 131.78C55.1193 131.816 55.1387 131.849 55.1653 131.876C55.2342 131.945 55.217 131.919 55.2342 131.927H55.3116H55.4924L56.1551 132.014C57.0157 132.117 57.8763 132.194 58.8144 132.272L58.6165 132.057C58.5965 132.235 58.5409 132.408 58.453 132.564C58.2531 132.845 57.9968 133.082 57.7004 133.258C57.404 133.434 57.0741 133.547 56.7317 133.588C56.015 133.705 55.2874 133.74 54.5629 133.692C53.1615 133.687 51.7677 133.485 50.4232 133.089H50.3371H50.2769L47.4109 133.864H47.2388V134.036C47.2388 134.63 47.3163 135.215 47.3507 135.757V135.964H47.5572L51.2666 135.792L51.0601 135.559C50.931 136.42 50.8019 137.22 50.69 137.969L50.7933 137.831C50.024 138.024 49.2416 138.159 48.4523 138.236L46.2233 138.486C44.3901 138.486 42.729 138.486 41.2746 138.348C40.6034 138.302 39.9363 138.21 39.2779 138.072C38.7367 137.919 38.2164 137.699 37.7287 137.418L35.6115 136.368L35.0521 136.11C35.1468 136.093 35.0866 136.067 35.078 136.076Z" fill="#EB996E"/>
<path d="M42.2729 129.595C42.8187 130.511 43.5775 131.282 44.4847 131.842C45.3136 132.513 46.2898 132.979 47.3334 133.201C47.3851 133.081 46.1285 132.47 44.7515 131.48C43.3745 130.49 42.3761 129.509 42.2729 129.595Z" fill="#EB996E"/>
<path d="M0.333015 158.47L17.0036 157.067L36.6607 164.546L40.9639 167.179L34.8361 188.196C34.8361 188.196 4.03377 170.045 2.7256 168.496C1.55216 167.139 0.722237 165.52 0.305832 163.775C-0.110573 162.03 -0.101242 160.21 0.333015 158.47Z" fill="#FFB64F"/>
<path d="M89.3248 173.918L95.0566 177.473L81.82 229.585L84.2212 259.629C80.7786 262.607 72.1722 265.163 55.82 264.234C39.4678 263.304 28.5549 256.187 28.5549 256.187L30.1213 225.281L33.8479 190.408L38.022 166.56L50.6217 167.472L55.536 164.563L57.7393 165.665L60.5622 173.497L67.912 168.178L76.5184 164.038L79.6598 169.899L89.3248 173.918Z" fill="#FFB64F"/>
<path d="M38.0215 172.627C37.838 172.997 37.6882 173.383 37.5739 173.78C37.2985 174.538 36.9543 175.639 36.5412 177.016C35.4891 180.6 34.6272 184.237 33.9593 187.912C33.3117 191.587 32.8578 195.292 32.5994 199.014C32.5048 200.443 32.4617 201.596 32.4531 202.397C32.4089 202.812 32.4089 203.23 32.4531 203.645C32.5348 203.236 32.5838 202.822 32.5994 202.405C32.6769 201.545 32.7716 200.4 32.8921 199.04C33.1589 196.2 33.615 192.276 34.381 187.99C35.1469 183.704 36.0592 179.865 36.7908 177.103C37.1436 175.786 37.4449 174.684 37.6514 173.832C37.819 173.445 37.9431 173.041 38.0215 172.627Z" fill="#263238"/>
<path d="M62.9106 173.04C63.3303 172.969 63.733 172.82 64.0983 172.601C65.1174 172.065 66.0005 171.302 66.6802 170.372L66.3704 170.286C66.5496 172.853 67.0676 175.386 67.911 177.817L68.0056 178.092L68.2466 177.929L68.8491 177.507C71.8183 175.467 74.4862 173.6 76.4055 172.223L78.6604 170.579C78.9482 170.392 79.2138 170.172 79.4521 169.925C79.147 170.061 78.8582 170.231 78.5915 170.433L76.2592 171.965C74.2883 173.264 71.5945 175.097 68.6339 177.128L68.0228 177.542L68.3671 177.653C67.5315 175.258 66.9882 172.769 66.7491 170.243V169.779L66.4823 170.157C65.8422 171.072 65.0186 171.843 64.0639 172.421C63.3151 172.842 62.8934 172.997 62.9106 173.04Z" fill="#263238"/>
<path d="M51.129 168.402C51.9783 169.531 52.9134 170.592 53.9261 171.577L54.081 171.741L54.2359 171.569C54.8138 170.892 55.4379 170.257 56.1035 169.667C56.465 169.357 56.8179 169.064 57.1707 168.806L57.6957 168.419C57.7352 168.409 57.7755 168.403 57.8162 168.402C57.8162 168.402 57.8162 168.402 57.8937 168.531L58.694 170.579C58.9122 171.225 59.2008 171.846 59.5547 172.429C59.4478 171.756 59.263 171.098 59.0039 170.467C58.7801 169.822 58.5391 169.124 58.2896 168.384C58.2667 168.306 58.2283 168.232 58.1766 168.169C58.1248 168.105 58.0608 168.053 57.9883 168.014C57.905 167.986 57.8162 167.979 57.7293 167.992C57.6425 168.006 57.5601 168.04 57.4892 168.092L56.9383 168.488C56.5683 168.754 56.1982 169.056 55.8367 169.348C55.1508 169.95 54.5174 170.61 53.9433 171.319H54.2531C53.2889 170.267 52.2444 169.292 51.129 168.402Z" fill="#263238"/>
<path d="M54.537 261.979C49.0194 260.943 43.335 261.224 37.9467 262.8C32.5585 264.377 27.6187 267.204 23.5298 271.05C19.4408 274.897 16.3183 279.656 14.4164 284.938C12.5145 290.22 11.8872 295.877 12.5853 301.447C13.2835 307.018 15.2875 312.345 18.4342 316.994C21.5808 321.643 25.7811 325.484 30.693 328.203C35.6048 330.921 41.0894 332.442 46.7001 332.64C52.3107 332.837 57.8887 331.707 62.9799 329.341C69.8244 326.154 75.4804 320.877 79.1327 314.269C82.7849 307.661 84.2448 300.064 83.302 292.573C82.3591 285.082 79.0623 278.084 73.8865 272.587C68.7107 267.09 61.9234 263.379 54.5026 261.987L54.537 261.979ZM41.8254 329.694C34.0421 328.224 27.0401 324.021 22.0815 317.844C17.1229 311.667 14.5338 303.922 14.781 296.005C15.0282 288.088 18.0954 280.52 23.4297 274.664C28.764 268.809 36.0145 265.051 43.8743 264.069C51.7342 263.087 59.6863 264.945 66.2974 269.308C72.9084 273.671 77.7435 280.252 79.9311 287.865C82.1187 295.478 81.515 303.622 78.2286 310.829C74.9423 318.036 69.1896 323.832 62.0074 327.172C55.709 330.102 48.6509 330.984 41.8254 329.694Z" fill="#455A64"/>
<path d="M48.0218 334.393C57.4109 334.406 66.464 330.9 73.3956 324.567C80.3271 318.234 84.6338 309.533 85.4663 300.181C86.2988 290.829 83.5966 281.504 77.8927 274.046C72.1889 266.588 63.8973 261.538 54.6536 259.892C45.4098 258.247 35.8848 260.124 27.9573 265.155C20.0298 270.186 14.2753 278.005 11.8288 287.07C9.38219 296.135 10.4212 305.787 14.7409 314.124C19.0605 322.46 26.3472 328.875 35.1638 332.104C39.2817 333.618 43.6345 334.393 48.0218 334.393ZM47.9443 265.447C52.3352 265.444 56.6785 266.358 60.6962 268.129C64.714 269.9 68.3177 272.491 71.277 275.735C74.2362 278.979 76.4858 282.805 77.8818 286.968C79.2777 291.131 79.7894 295.539 79.384 299.912C78.9786 304.284 77.6651 308.523 75.5275 312.359C73.3898 316.194 70.4752 319.541 66.9699 322.186C63.4647 324.83 59.4461 326.714 55.1711 327.716C50.8962 328.719 46.459 328.818 42.1436 328.007C37.2175 327.073 32.5836 324.983 28.6231 321.908C24.6626 318.833 21.4887 314.862 19.3624 310.321C17.1282 305.514 16.1404 300.222 16.4902 294.933C16.8399 289.644 18.516 284.528 21.3637 280.057C24.2114 275.586 28.1391 271.904 32.7845 269.351C37.4299 266.797 42.6435 265.455 47.9443 265.447Z" fill="#455A64"/>
<path d="M134.697 262.211L134.378 261.437C133.707 259.776 132.227 258.803 131.074 259.277L78.9704 280.474C78.7122 280.577 78.6261 280.965 78.7724 281.335L80.9929 286.791C81.1478 287.161 81.4749 287.376 81.733 287.273L133.836 266.033C134.99 265.559 135.377 263.838 134.697 262.211Z" fill="#455A64"/>
<path d="M86.0361 202.173L92.3016 222.906L89.1603 265.163L98.4036 266.325C98.4036 266.325 108.989 230.368 107.939 223.861C106.889 217.355 102.569 198.403 102.569 198.403L86.0361 202.173Z" fill="#FFBE9D"/>
<path d="M89.1859 264.862L84.8827 272.212L82.1975 279.097L86.2167 277.522C86.2167 277.522 87.938 285.836 88.6351 286.051C89.3322 286.266 91.2687 285.595 91.0707 284.003C91.3575 284.282 91.7042 284.492 92.0845 284.618C92.4648 284.743 92.8687 284.78 93.2654 284.726C94.4875 284.476 94.7801 283.684 94.6424 282.144C94.6424 282.144 96.0624 283.297 96.9145 282.583C97.1751 282.326 97.3782 282.016 97.5103 281.675C97.6423 281.334 97.7003 280.968 97.6805 280.603C97.6805 280.603 99.5308 280.758 99.789 279.803C100.061 278.233 100.095 276.632 99.8923 275.052C99.6771 274.002 98.7821 269.733 98.7821 269.733L98.369 266.291L89.1859 264.862Z" fill="#FFBE9D"/>
<path d="M90.1933 279.209C90.529 279.957 90.7467 280.753 90.8388 281.567C91.0515 282.361 91.1415 283.182 91.1056 284.003C90.7683 283.255 90.5505 282.46 90.4601 281.645C90.2474 280.851 90.1574 280.03 90.1933 279.209Z" fill="#EB996E"/>
<path d="M93.9626 278.254C94.2785 278.834 94.4746 279.472 94.5392 280.13C94.7306 280.765 94.7978 281.431 94.7371 282.092C94.428 281.506 94.2324 280.866 94.1605 280.207C93.974 279.574 93.9069 278.911 93.9626 278.254Z" fill="#EB996E"/>
<path d="M97.1133 277.367C97.3002 277.889 97.3991 278.439 97.4059 278.994C97.5522 279.854 97.7846 280.586 97.6727 280.629C97.2902 280.189 97.0634 279.635 97.0272 279.054C96.8968 278.495 96.9266 277.91 97.1133 277.367Z" fill="#EB996E"/>
<path d="M85.9333 275.121C86.2661 275.855 86.4977 276.631 86.6218 277.428C86.8711 278.194 87.0215 278.99 87.0693 279.794C86.6538 279.096 86.3763 278.325 86.2517 277.522C85.998 276.748 85.89 275.934 85.9333 275.121Z" fill="#EB996E"/>
<path d="M108.448 237.821C108.448 237.115 111.34 227.269 110.462 222.166C109.584 217.062 99.0843 182.576 97.6729 180.115C96.5609 178.455 95.0081 177.137 93.189 176.311C91.163 177.409 89.3789 178.904 87.9431 180.706C86.5074 182.509 85.4493 184.582 84.8321 186.802C82.7236 194.367 82.7236 203.86 82.7236 203.86L91.1665 224.799L90.1595 236.693L108.448 237.821Z" fill="#FFB64F"/>
<path d="M83.257 203.171C83.3431 203.171 83.1796 201.622 83.257 199.144C83.3098 197.702 83.4506 196.265 83.6788 194.84C84.2258 191.326 85.3054 187.916 86.8803 184.728C87.5202 183.426 88.2388 182.164 89.0319 180.95C90.3917 178.867 91.4073 177.705 91.3471 177.653C91.0668 177.886 90.8128 178.149 90.5897 178.437C89.9459 179.168 89.3481 179.938 88.7996 180.743C87.9625 181.947 87.2091 183.206 86.5447 184.513C84.9149 187.728 83.8191 191.187 83.3001 194.754C83.0938 196.209 82.9845 197.675 82.973 199.144C82.9595 200.13 83.0083 201.116 83.1193 202.096C83.1308 202.458 83.1769 202.818 83.257 203.171Z" fill="#263238"/>
<path d="M83.7982 207.552C84.0088 208.436 84.2968 209.3 84.6588 210.134C85.2699 211.726 86.1908 213.886 87.2408 216.244L89.9604 222.269C90.2913 223.125 90.6825 223.956 91.1309 224.756C90.9203 223.872 90.6323 223.008 90.2702 222.174C89.6592 220.582 88.7383 218.422 87.6883 216.064L84.9687 210.039C84.6377 209.184 84.2466 208.352 83.7982 207.552Z" fill="#263238"/>
<path d="M90.6755 225.608C92.533 224.617 94.467 223.777 96.459 223.095C98.4973 222.563 100.575 222.197 102.673 222.002C102.057 221.868 101.424 221.833 100.797 221.899C99.2821 221.971 97.782 222.228 96.3299 222.665C94.876 223.1 93.4823 223.716 92.1816 224.498C91.6235 224.785 91.115 225.16 90.6755 225.608Z" fill="#263238"/>
<path d="M35.7151 284.915C35.6376 285.01 42.4195 290.94 50.871 298.178C59.3225 305.416 66.2334 311.191 66.3109 311.087C66.3883 310.984 59.6065 305.063 51.155 297.833C42.7035 290.604 35.7925 284.821 35.7151 284.915Z" fill="white"/>
<path d="M26.9884 284.915C26.9023 285.01 32.617 290.079 39.7517 296.181C46.8864 302.283 52.7216 307.206 52.8076 307.111C52.8937 307.016 47.1704 301.947 40.0443 295.845C32.9182 289.743 27.0659 284.82 26.9884 284.915Z" fill="white"/>
<path d="M14.1382 297.007C14.1382 297.007 14.1382 296.826 14.1898 296.465C14.2414 296.103 14.2414 295.552 14.2931 294.855C14.2931 294.503 14.2931 294.107 14.3619 293.676C14.4308 293.246 14.4996 292.773 14.5771 292.256C14.6545 291.74 14.7406 291.198 14.8353 290.612C14.93 290.027 15.1279 289.425 15.2742 288.771C16.0684 285.607 17.3333 282.581 19.0266 279.794C21.2427 276.091 24.1499 272.847 27.59 270.241L29.0445 269.157C29.5609 268.821 30.0945 268.52 30.6281 268.193C31.1616 267.866 31.6866 267.504 32.2719 267.237L33.9932 266.377L34.8538 265.955L35.7919 265.619L37.6853 264.931C38.3308 264.716 39.0021 264.578 39.6648 264.397C40.3348 264.202 41.016 264.047 41.7045 263.933C43.1088 263.672 44.5293 263.508 45.9561 263.442C46.679 263.442 47.4105 263.347 48.1507 263.356L50.3712 263.476C50.7498 263.476 51.1285 263.476 51.4986 263.545L52.6174 263.717C53.3662 263.846 54.1322 263.933 54.8809 264.087C56.4029 264.427 57.9008 264.867 59.3649 265.404C60.8672 265.946 62.3308 266.591 63.7455 267.332C64.4598 267.719 65.1398 268.193 65.8455 268.58C66.1897 268.804 66.5512 268.993 66.8782 269.234L67.868 269.983C70.6356 271.956 73.0555 274.376 75.0285 277.143L75.8031 278.176L76.483 279.286L77.1543 280.397C77.3924 280.762 77.6024 281.144 77.7826 281.541L78.9186 283.908C79.2284 284.769 79.5297 285.569 79.8309 286.404C82.1432 293.284 82.1432 300.73 79.8309 307.61C79.5211 308.471 79.2198 309.271 78.9186 310.097C78.6174 310.924 78.1526 311.681 77.774 312.473L77.49 313.058L77.1457 313.617L76.4744 314.728L75.7945 315.838L75.0199 316.871C74.0124 318.229 72.9171 319.52 71.7409 320.735C70.5397 321.896 69.2663 322.979 67.9282 323.979L66.9385 324.72C66.6028 324.969 66.2414 325.15 65.8971 325.374C65.1914 325.787 64.5115 326.234 63.8058 326.622C62.3891 327.365 60.9225 328.009 59.4165 328.549C57.9524 329.086 56.4545 329.526 54.9326 329.866C54.1838 330.021 53.4178 330.107 52.6691 330.236L51.5502 330.408C51.1715 330.46 50.8015 330.451 50.4228 330.477L48.2023 330.598C47.4622 330.598 46.7306 330.538 46.0077 330.512C44.581 330.446 43.1604 330.282 41.7561 330.021C41.0668 329.911 40.3854 329.756 39.7164 329.556C39.0537 329.376 38.3738 329.238 37.7369 329.031L35.8435 328.334L34.9054 327.999L34.0448 327.577L32.3235 326.716C31.7383 326.45 31.2219 326.071 30.6797 325.761C30.1375 325.451 29.6125 325.133 29.0961 324.797L27.6416 323.713C24.1995 321.109 21.2919 317.865 19.0783 314.16C17.3724 311.394 16.0902 308.389 15.2742 305.243C15.1279 304.589 14.9041 303.995 14.8353 303.402C14.7664 302.808 14.6545 302.266 14.5771 301.758C14.4996 301.25 14.405 300.777 14.3619 300.346C14.3189 299.916 14.3103 299.486 14.2931 299.159C14.2414 298.47 14.207 297.936 14.1898 297.558C14.1898 297.196 14.1382 297.007 14.1382 297.007C14.1382 297.007 14.1382 297.196 14.1382 297.558C14.1382 297.919 14.1382 298.47 14.1984 299.167C14.1984 299.523 14.2156 299.919 14.2501 300.355C14.2501 300.785 14.3705 301.259 14.4394 301.775L14.6804 303.427C14.7926 304.054 14.9362 304.674 15.1107 305.286C15.8698 308.48 17.1181 311.537 18.8114 314.349C21.0289 318.099 23.9515 321.384 27.4179 324.023L28.881 325.124C29.3973 325.46 29.9395 325.778 30.4731 326.105C31.0067 326.432 31.5403 326.802 32.1256 327.078L33.8899 327.938L34.7505 328.36L35.6972 328.713L37.6078 329.41C38.2533 329.634 38.9332 329.772 39.6131 329.952C40.2867 330.159 40.9741 330.317 41.6701 330.426C43.0906 330.697 44.5287 330.866 45.9733 330.933C46.7134 330.933 47.445 331.037 48.1937 331.028L50.4486 330.916C50.8187 330.916 51.206 330.916 51.5847 330.847L52.7207 330.675C53.4781 330.546 54.244 330.46 55.01 330.305C56.5498 329.965 58.065 329.522 59.5456 328.98C61.0736 328.439 62.5606 327.789 63.9951 327.035C64.7094 326.647 65.3979 326.174 66.1123 325.778C66.4651 325.554 66.8352 325.365 67.1709 325.116L68.1434 324.35C69.5041 323.345 70.7951 322.25 72.0077 321.071C73.2119 319.837 74.3278 318.519 75.347 317.129L76.1387 316.087L76.8187 314.96L77.5072 313.833L77.8514 313.273L78.144 312.671L79.3317 310.269L80.2612 307.748C82.6082 300.768 82.6082 293.212 80.2612 286.232L79.3317 283.727C78.9444 282.927 78.5571 282.126 78.1785 281.326C77.9917 280.925 77.7789 280.537 77.5416 280.164L76.8531 279.037L76.1646 277.918L75.3814 276.877C74.3571 275.49 73.2415 274.173 72.0421 272.935C70.8295 271.756 69.5385 270.66 68.1778 269.656L67.1709 268.907C66.8327 268.665 66.4822 268.441 66.1209 268.236C65.4066 267.823 64.718 267.375 64.0037 266.979C62.5675 266.228 61.0808 265.578 59.5542 265.034C58.0736 264.492 56.5584 264.049 55.0186 263.709C54.2526 263.554 53.4867 263.468 52.7293 263.339L51.5933 263.167C51.2146 263.124 50.8359 263.124 50.4572 263.098L48.2023 262.986C47.4622 262.986 46.722 263.055 45.9905 263.081C44.5458 263.147 43.1078 263.317 41.6873 263.588C40.9931 263.706 40.3063 263.864 39.6303 264.062C38.959 264.242 38.2791 264.389 37.6251 264.604L35.7144 265.301L34.7763 265.654L33.9157 266.084L32.1944 266.945C31.6245 267.237 31.0701 267.559 30.5334 267.909C29.9998 268.236 29.4576 268.554 28.9412 268.89L27.4781 269.991C24.0118 272.63 21.0892 275.915 18.8717 279.665C17.1784 282.477 15.9301 285.534 15.1709 288.728C15.0246 289.382 14.8095 289.993 14.7406 290.587C14.6718 291.18 14.5771 291.731 14.4996 292.239C14.4222 292.747 14.3447 293.229 14.3103 293.659C14.2759 294.089 14.3103 294.52 14.2587 294.847C14.2587 295.544 14.2587 296.077 14.1984 296.456C14.1382 296.835 14.1382 297.007 14.1382 297.007Z" fill="#263238"/>
<path d="M26.626 314.968C26.3625 314.567 26.0751 314.182 25.7653 313.815C24.983 312.784 24.2645 311.706 23.6137 310.588C21.4363 306.91 20.0785 302.805 19.6329 298.554C19.1873 294.303 19.6644 290.006 21.0318 285.956C21.4444 284.729 21.9242 283.525 22.4691 282.35C22.6995 281.933 22.898 281.498 23.0629 281.051C23.0629 281.051 22.9769 281.145 22.8478 281.352C22.7187 281.558 22.5293 281.86 22.3142 282.273C21.7006 283.425 21.1742 284.622 20.7392 285.853C19.2644 289.929 18.7305 294.286 19.1776 298.598C19.6248 302.91 21.0413 307.064 23.3211 310.751C24.007 311.864 24.7721 312.925 25.6104 313.927C25.903 314.28 26.1612 314.538 26.3248 314.719C26.4883 314.9 26.6088 314.977 26.626 314.968Z" fill="#263238"/>
<path d="M28.4072 318.058C28.347 318.17 28.6138 318.437 29.0011 318.661C29.3883 318.885 29.7584 318.971 29.8187 318.867C29.8789 318.764 29.6121 318.489 29.2248 318.265C28.8375 318.041 28.4675 317.955 28.4072 318.058Z" fill="#263238"/>
<path d="M72.7826 311.492C72.869 311.367 72.9385 311.231 72.9892 311.087C73.1097 310.82 73.299 310.424 73.4969 309.891C74.07 308.396 74.5275 306.86 74.8654 305.295C75.9982 300.101 75.8656 294.711 74.4786 289.58C73.0915 284.448 70.4909 279.725 66.8958 275.809C65.8213 274.622 64.6528 273.522 63.4016 272.522C62.9713 272.16 62.6012 271.919 62.3602 271.739C62.1193 271.558 61.9902 271.48 61.973 271.498C61.9557 271.515 62.4377 271.919 63.2897 272.66C64.4883 273.702 65.6154 274.823 66.6635 276.016C70.154 279.943 72.6834 284.628 74.0516 289.7C75.4198 294.773 75.5894 300.094 74.5469 305.243C74.2349 306.798 73.8209 308.33 73.3076 309.831C72.972 310.898 72.7482 311.483 72.7826 311.492Z" fill="white"/>
<path d="M52.806 269.312C54.1052 269.715 55.477 269.83 56.8252 269.647C56.2001 269.37 55.521 269.234 54.8371 269.251C54.1637 269.124 53.4706 269.144 52.806 269.312Z" fill="white"/>
</svg>
